<?xml version="1.0" encoding="utf-8"?>
<!-- Generator: Adobe Illustrator 27.0.1, SVG Export Plug-In . SVG Version: 6.00 Build 0)  -->
<svg version="1.1" id="Layer_1" xmlns="http://www.w3.org/2000/svg" xmlns:xlink="http://www.w3.org/1999/xlink" x="0px" y="0px"
	 viewBox="0 0 350.34 358.94" style="enable-background:new 0 0 350.34 358.94;" xml:space="preserve">
<style type="text/css">
	.st0{fill:#F68F7B;}
	.st1{fill:#FFFFFF;}
</style>
<g id="pink-v1">
	<circle class="st0" cx="170.12" cy="104.88" r="66.36"/>
	<g>
		<path d="M58.76,260.24l-0.98-0.77c1.73-3.88,2.59-10,2.59-18.36v-9.74L66.4,232c-0.14,0.98-0.94,1.57-2.38,1.75v7.43
			C64.02,249.78,62.27,256.13,58.76,260.24z M68.78,267.11v-41.97h-10.3l-0.49-2.03h17.52l3.15-4.13c1.92,1.68,3.83,3.36,5.75,5.04
			c-0.14,0.75-0.75,1.12-1.82,1.12h-9.67v40.57c0,0.23-0.33,0.51-0.98,0.84c-0.75,0.37-1.59,0.56-2.52,0.56L68.78,267.11
			L68.78,267.11z M60.3,210.57l-0.56-2.1h13.52l3.22-3.92c0.7,0.56,1.42,1.1,2.17,1.61c1.63,1.31,2.94,2.41,3.92,3.29
			c-0.19,0.75-0.82,1.12-1.89,1.12L60.3,210.57L60.3,210.57z M77.26,256.67v-25.44l6.03,0.63c-0.14,0.98-0.89,1.57-2.24,1.75v21.51
			c0,0.28-0.35,0.61-1.05,0.98c-0.7,0.37-1.38,0.56-2.03,0.56h-0.71V256.67z M85.04,210.57l-0.56-2.1h28.38l3.22-4.06
			c0.7,0.56,1.42,1.12,2.17,1.68c1.63,1.36,2.9,2.48,3.78,3.36c-0.14,0.75-0.72,1.12-1.75,1.12L85.04,210.57L85.04,210.57z
			 M86.09,267.32v-30.9l5.04,2.17h23.4l2.17-2.73l5.04,3.92c-0.47,0.61-1.33,1-2.59,1.19v24.24c0,0.19-0.37,0.44-1.12,0.77
			c-0.84,0.37-1.68,0.56-2.52,0.56h-0.7v-3.15H90.29v2.52c0,0.23-0.33,0.51-0.98,0.84c-0.75,0.37-1.61,0.56-2.59,0.56h-0.63V267.32z
			 M89.73,234.46v-19.27l5.04,2.17h15.91l2.17-2.59l4.83,3.71c-0.51,0.56-1.31,0.93-2.38,1.12v13.03c0,0.19-0.37,0.45-1.12,0.77
			c-0.84,0.37-1.71,0.56-2.59,0.56h-0.77v-2.87H93.94v2.03c0,0.28-0.3,0.56-0.91,0.84c-0.75,0.33-1.64,0.49-2.66,0.49L89.73,234.46
			L89.73,234.46z M90.29,249.66h9.95v-9.04h-9.95V249.66z M90.29,261.37h9.95v-9.6h-9.95V261.37z M93.94,229.06h16.89v-9.67H93.94
			V229.06z M104.45,249.66h10.37v-9.04h-10.37V249.66z M104.45,261.37h10.37v-9.6h-10.37V261.37z"/>
		<path d="M144.95,260.24l-0.98-0.77c1.73-3.88,2.59-10,2.59-18.36v-9.74l6.03,0.63c-0.14,0.98-0.94,1.57-2.38,1.75v7.43
			C150.2,249.78,148.45,256.13,144.95,260.24z M154.97,267.11v-41.97h-10.3l-0.49-2.03h17.52l3.15-4.13
			c1.92,1.68,3.83,3.36,5.75,5.04c-0.14,0.75-0.75,1.12-1.82,1.12h-9.67v40.57c0,0.23-0.33,0.51-0.98,0.84
			c-0.75,0.37-1.59,0.56-2.52,0.56L154.97,267.11L154.97,267.11z M146.49,210.57l-0.56-2.1h13.52l3.22-3.92
			c0.7,0.56,1.42,1.1,2.17,1.61c1.63,1.31,2.94,2.41,3.92,3.29c-0.19,0.75-0.82,1.12-1.89,1.12L146.49,210.57L146.49,210.57z
			 M163.45,256.67v-25.44l6.03,0.63c-0.14,0.98-0.89,1.57-2.24,1.75v21.51c0,0.28-0.35,0.61-1.05,0.98s-1.38,0.56-2.03,0.56h-0.71
			V256.67z M171.22,210.57l-0.56-2.1h28.38l3.22-4.06c0.7,0.56,1.42,1.12,2.17,1.68c1.63,1.36,2.9,2.48,3.78,3.36
			c-0.14,0.75-0.72,1.12-1.75,1.12L171.22,210.57L171.22,210.57z M172.27,267.32v-30.9l5.04,2.17h23.4l2.17-2.73l5.04,3.92
			c-0.47,0.61-1.33,1-2.59,1.19v24.24c0,0.19-0.37,0.44-1.12,0.77c-0.84,0.37-1.68,0.56-2.52,0.56H201v-3.15h-24.52v2.52
			c0,0.23-0.33,0.51-0.98,0.84c-0.75,0.37-1.61,0.56-2.59,0.56h-0.64V267.32z M175.92,234.46v-19.27l5.04,2.17h15.91l2.17-2.59
			l4.83,3.71c-0.51,0.56-1.31,0.93-2.38,1.12v13.03c0,0.19-0.37,0.45-1.12,0.77c-0.84,0.37-1.71,0.56-2.59,0.56h-0.77v-2.87h-16.89
			v2.03c0,0.28-0.3,0.56-0.91,0.84c-0.75,0.33-1.64,0.49-2.66,0.49L175.92,234.46L175.92,234.46z M176.48,249.66h9.95v-9.04h-9.95
			V249.66z M176.48,261.37h9.95v-9.6h-9.95V261.37z M180.12,229.06h16.89v-9.67h-16.89V229.06z M190.63,249.66H201v-9.04h-10.37
			V249.66z M190.63,261.37H201v-9.6h-10.37V261.37z"/>
		<path d="M227.7,228.92c-1.03-0.05-1.73-0.49-2.1-1.33c-0.28-0.7-0.23-1.4,0.14-2.1c0.37-0.65,0.93-1.19,1.68-1.61
			c1.45-0.79,2.62-2.15,3.5-4.06c0.93-1.96,1.26-4.06,0.98-6.31l1.19-0.07c0.37,1.03,0.68,2.15,0.91,3.36h20.25v-13.73l7.15,0.77
			c-0.14,1.08-0.96,1.71-2.45,1.89v11.07h6.94c2.9-4.3,5.18-8.38,6.87-12.26l7.15,2.66c-0.42,0.89-1.36,1.24-2.8,1.05
			c-2.48,2.94-5.49,5.79-9.04,8.55h12.19l3.01-3.15l5.54,5.33c-0.42,0.33-1.33,0.54-2.73,0.63c-2.06,2.57-4.62,4.88-7.71,6.94
			l-0.91-0.56c0.75-1.4,1.73-3.81,2.94-7.22h-46.17c0.14,2.2-0.16,4.18-0.91,5.96c-0.65,1.5-1.54,2.62-2.66,3.36
			C229.66,228.69,228.68,228.97,227.7,228.92z M227.14,265.43l-0.56-2.03h27.75v-11.21h-20.18l-0.56-2.03h20.74v-9.6h-11.49v2.31
			c0,0.23-0.4,0.54-1.19,0.91c-0.84,0.37-1.71,0.56-2.59,0.56h-0.63v-20.32l4.76,2.17h26.7l2.38-2.52l5.4,3.99
			c-0.56,0.66-1.45,1.08-2.66,1.26v13.03c-0.05,0.23-0.49,0.54-1.33,0.91c-0.93,0.37-1.75,0.56-2.45,0.56h-0.63v-2.87h-11.63v9.6
			h13.45l3.22-3.99c2.01,1.64,3.99,3.27,5.96,4.91c-0.19,0.75-0.82,1.12-1.89,1.12h-20.74v11.21h19.41l3.36-4.27
			c2.1,1.73,4.18,3.48,6.24,5.25c-0.14,0.7-0.77,1.05-1.89,1.05H227.14z M245.63,216.21c-0.89,0.63-1.92,0.53-3.08-0.32
			c-0.23-1.73-1.05-3.62-2.45-5.67c-1.31-1.87-2.78-3.46-4.41-4.76l0.77-0.63c3.32,0.93,5.91,2.24,7.78,3.92
			c1.49,1.4,2.33,2.87,2.52,4.41C246.9,214.56,246.52,215.58,245.63,216.21z M242.83,238.45h27.75v-10.16h-27.75L242.83,238.45
			L242.83,238.45z"/>
	</g>
	<g>
		<path d="M71.82,303.89c-0.15-1.25-0.45-2.06-0.89-2.45s-1.25-0.59-2.43-0.61l-4.77-0.03v6.8c0,1.87,1.04,2.81,3.13,2.81v0.48
			h-8.48v-0.48c1.14,0,1.93-0.22,2.37-0.66s0.66-1.27,0.66-2.5v-13.09c0-0.92-0.18-1.6-0.53-2.03s-1.19-0.7-2.5-0.81v-0.48h16.09
			l0.1,4.35h-0.68c-0.24-1.38-0.66-2.3-1.27-2.77c-0.61-0.47-1.75-0.71-3.4-0.71h-4.51c-0.64,0-0.97,0.34-0.97,1.03v7.19h4.77
			c1.23,0,2.05-0.21,2.47-0.63s0.7-1.23,0.85-2.43h0.71v7.03h-0.72V303.89z"/>
		<path d="M103.93,291.32c-1.2,0.13-2,0.43-2.4,0.92c-0.4,0.48-0.6,1.5-0.6,3.05v7.9c0,3.05-0.65,5.17-1.93,6.35
			c-1.29,1.18-3.2,1.77-5.74,1.77c-2.39,0-4.18-0.58-5.37-1.74s-1.79-3.15-1.79-5.96v-9.45c0-1.1-0.22-1.84-0.66-2.24
			s-1.25-0.6-2.43-0.6v-0.48h8.58v0.48c-1.23,0-2.06,0.19-2.5,0.58c-0.44,0.39-0.66,1.14-0.66,2.26v9.67c0,4.28,1.89,6.42,5.67,6.42
			c3.89,0,5.84-2.26,5.84-6.77v-8.19c0-1.55-0.23-2.6-0.68-3.14c-0.45-0.55-1.24-0.82-2.35-0.82v-0.48h7.03L103.93,291.32
			L103.93,291.32z"/>
		<path d="M125.99,303.89c-0.15-1.25-0.45-2.06-0.89-2.45s-1.25-0.59-2.43-0.61l-4.77-0.03v6.8c0,1.87,1.04,2.81,3.13,2.81v0.48
			h-8.48v-0.48c1.14,0,1.93-0.22,2.37-0.66s0.66-1.27,0.66-2.5v-13.09c0-0.92-0.18-1.6-0.53-2.03s-1.19-0.7-2.5-0.81v-0.48h16.09
			l0.1,4.35h-0.68c-0.24-1.38-0.66-2.3-1.27-2.77c-0.61-0.47-1.75-0.71-3.4-0.71h-4.51c-0.64,0-0.97,0.34-0.97,1.03v7.19h4.77
			c1.23,0,2.05-0.21,2.47-0.63s0.7-1.23,0.85-2.43h0.71v7.03h-0.72V303.89z"/>
		<path d="M158.1,291.32c-1.2,0.13-2,0.43-2.4,0.92c-0.4,0.48-0.6,1.5-0.6,3.05v7.9c0,3.05-0.65,5.17-1.93,6.35
			c-1.29,1.18-3.2,1.77-5.74,1.77c-2.39,0-4.18-0.58-5.37-1.74s-1.79-3.15-1.79-5.96v-9.45c0-1.1-0.22-1.84-0.66-2.24
			s-1.25-0.6-2.43-0.6v-0.48h8.58v0.48c-1.23,0-2.06,0.19-2.5,0.58c-0.44,0.39-0.66,1.14-0.66,2.26v9.67c0,4.28,1.89,6.42,5.67,6.42
			c3.89,0,5.84-2.26,5.84-6.77v-8.19c0-1.55-0.23-2.6-0.68-3.14c-0.45-0.55-1.24-0.82-2.35-0.82v-0.48h7.03v0.47H158.1z"/>
		<path d="M198.57,310.89h-8.87v-0.48c1.33,0,2.2-0.23,2.61-0.68c0.41-0.45,0.61-1.28,0.61-2.48v-15.54h-1.64
			c-1.68,0-2.89,0.3-3.64,0.9s-1.29,1.73-1.61,3.39h-0.65l0.19-5.16h17.06l0.19,5.16h-0.64c-0.3-1.65-0.83-2.78-1.6-3.39
			c-0.76-0.6-1.99-0.9-3.69-0.9h-1.64v15.9c0,1.05,0.24,1.79,0.71,2.19c0.47,0.41,1.34,0.61,2.61,0.61L198.57,310.89L198.57,310.89z
			"/>
		<path d="M230.87,310.89h-7.71v-0.48c1.63,0,2.45-0.45,2.45-1.35c0-0.34-0.19-0.98-0.58-1.9l-1.29-3h-8.54l-1.45,3.74
			c-0.17,0.45-0.26,0.84-0.26,1.16c0,0.9,0.82,1.35,2.45,1.35v0.48h-6v-0.48c0.49,0,0.99-0.24,1.5-0.73
			c0.5-0.48,1.26-1.93,2.27-4.34l6.29-14.86h0.39l7.38,17.19c0.79,1.83,1.83,2.74,3.09,2.74L230.87,310.89L230.87,310.89z
			 M223.39,303.28l-3.97-9.32l-3.84,9.32H223.39z"/>
		<path d="M258.89,291.32c-1.4,0.15-2.26,0.53-2.58,1.13c-0.32,0.6-0.48,1.55-0.48,2.84v15.93h-0.32l-13.54-16.93l-0.06,12.16
			c0,1.55,0.22,2.6,0.66,3.14s1.24,0.82,2.4,0.82v0.48h-7.13v-0.48c1.18,0,2-0.26,2.45-0.79s0.68-1.58,0.68-3.18v-13.41
			c-0.9-1.14-1.95-1.71-3.13-1.71v-0.48h4.55l12.45,15.67l0.06-11.22c0-1.44-0.2-2.46-0.61-3.06s-1.25-0.9-2.52-0.9v-0.48h7.13
			L258.89,291.32L258.89,291.32z"/>
		<path d="M286.94,300.57c-1.05,0.11-1.72,0.35-2.01,0.72c-0.29,0.38-0.44,0.96-0.44,1.76v6.09c0,0.3-0.82,0.74-2.47,1.31
			s-3.17,0.85-4.56,0.85c-3.48,0-6.19-0.95-8.12-2.84s-2.9-4.52-2.9-7.9c0-2.77,0.98-5.16,2.93-7.16s4.43-3,7.42-3
			c0.99,0,1.92,0.13,2.8,0.39c0.88,0.26,1.77,0.52,2.68,0.77c0.71,0,1.17-0.39,1.39-1.16h0.64l0.26,6.38h-0.58
			c-1.35-3.68-3.61-5.51-6.77-5.51c-2.24,0-4.17,0.88-5.79,2.64s-2.43,4.18-2.43,7.25c0,2.73,0.85,4.96,2.55,6.67
			c1.7,1.72,3.76,2.58,6.19,2.58c1.05,0,2.06-0.22,3.01-0.66c0.96-0.44,1.44-0.93,1.44-1.47v-4.9c0-1.18-0.22-1.95-0.65-2.31
			c-0.43-0.35-1.2-0.53-2.32-0.53v-0.42h7.74v0.45H286.94z"/>
	</g>
	<path class="st1" d="M210.64,64.61c-10.81-10.77-25.19-16.69-40.48-16.69s-29.67,5.93-40.48,16.69
		c-10.81,10.77-16.77,25.08-16.77,40.31s5.96,29.55,16.77,40.31c10.81,10.77,25.19,16.69,40.48,16.69s29.67-5.93,40.48-16.69
		c10.81-10.77,16.77-25.08,16.77-40.31S221.45,75.38,210.64,64.61z M208.56,66.69c0.57,0.56,1.12,1.14,1.65,1.72
		c-16.88-0.27-33.99-0.28-50.6-0.29c0.46-1.19,0.82-2.4,1.13-3.56c1.15-4.33,1.9-8.78,2.25-13.25c2.35-0.31,4.74-0.47,7.15-0.47
		C184.66,50.85,198.31,56.48,208.56,66.69z M131.75,66.69c7.83-7.79,17.63-12.91,28.27-14.9c-0.36,4.06-1.07,8.09-2.11,12.02
		c-0.73,2.75-1.76,5.82-3.88,7.74c-2.8,2.54-7.04,2.85-11.51,2.96l-17.6,0.44C126.9,72.02,129.18,69.25,131.75,66.69z M117.85,90.26
		l8.3-0.11l0.16,24.95c0.04,6.37,0.08,12.96-1.69,19.11c-0.01,0.03-0.03,0.09-0.04,0.15c-5.68-8.68-8.73-18.82-8.73-29.43
		C115.84,99.89,116.53,94.97,117.85,90.26z M126.37,136.94c0.01-0.01,0.01-0.01,0.02-0.02c0.62-0.57,0.86-1.28,1.04-1.9
		c1.89-6.55,1.85-13.36,1.81-19.94l-0.16-24.97l9.64-0.13c0.32,19.64,0.39,39.53,0.2,59.19c-2.54-1.78-4.94-3.79-7.17-6.02
		C129.78,141.2,127.99,139.12,126.37,136.94z M151.38,155.69l-0.3-48.07c0-0.02-0.01-2.2,1.25-3.48c0.64-0.65,1.5-0.96,2.65-0.96
		c3.8,0,4.42,3.28,4.51,3.92c-0.04,1.33-0.4,14.81-0.4,22.46c0,1.58-0.36,2.6-1.07,3.03c-1.47,0.89-4.46-0.31-5.39-0.79l-0.68,1.3
		l-0.69,1.3c0.52,0.27,5.13,2.61,8.27,0.71c1.66-1,2.5-2.86,2.5-5.54c0-7.97,0.4-22.34,0.4-22.48V107l-0.01-0.09
		c-0.21-2.3-2.05-6.66-7.44-6.66c-1.95,0-3.55,0.62-4.75,1.84c-2.13,2.17-2.09,5.45-2.09,5.57l0.29,46.86
		c-2.27-0.99-4.48-2.13-6.6-3.43c0.21-20.3,0.15-40.86-0.18-61.14l18.07-0.24c0.76,5.32,5.16,7.55,7.58,7.99l0.14,0.02l41.04-0.43
		c0.61,0.04,3.72,0.14,6.1-2.01c1.78-1.61,2.68-4,2.68-7.12c0-3.11-0.9-5.53-2.67-7.19c-2.41-2.26-5.58-2.23-6.09-2.21l-40.93-0.2
		h-0.05c-0.08,0-7.14,0.52-7.85,8.2l-40.9,0.54c1.12-3.25,2.56-6.39,4.29-9.37l19.54-0.49c5.04-0.13,9.86-0.51,13.4-3.72
		c0.87-0.79,1.58-1.69,2.18-2.67c17.77,0.01,36.62,0.02,54.67,0.33l0,0c7.31,8.96,11.03,19.43,11.55,31.04l-52.91,0.68
		c-2.67,0.06-7.78,1.8-7.99,7.97c-0.22,6.25-0.34,26.42-0.34,27.41c-0.02,0.5-0.1,3.76,2.05,6.06c1.37,1.47,3.29,2.22,5.7,2.22
		c5.26,0,25.58-0.35,34.22-0.5c-9.78,8.23-22.04,12.71-34.99,12.71C163.65,158.99,157.31,157.86,151.38,155.69z M162.55,88.05
		c0-5.86,4.42-6.49,5.12-6.55l40.92,0.2h0.05c0.02,0,2.33-0.11,3.96,1.42c1.16,1.08,1.74,2.78,1.74,5.04c0,2.24-0.57,3.89-1.7,4.92
		c-1.61,1.47-3.93,1.28-3.95,1.28l-0.08-0.01l-40.89,0.43C166.91,94.59,162.55,93.31,162.55,88.05z M166.1,138.65v-0.1
		c0-0.15,0.06-11.01,0.18-19.43l43,0.24c-0.11,0.34,0.12-0.35,0,0c-4,11.15-11.33,20.1-20.92,24.23l0,0
		c-7.46,0.12-14.59,0.25-17.44,0.25c-1.56,0-2.75-0.43-3.54-1.27C165.97,141.08,166.1,138.66,166.1,138.65z M210.17,116.43
		l-43.84-0.25c0.03-2.03,0.07-3.78,0.12-4.99c0.17-4.84,4.62-5.13,5.11-5.14l40.48-0.52C211.93,107.3,211.54,111.44,210.17,116.43z
		 M208.56,143.15c-0.04,0.04-0.09,0.09-0.13,0.13c-1.78,0.03-7.4,0.13-13.83,0.24c7.75-4.82,13.62-12.41,17.12-22.23
		c2.59-7.26,3.15-13.58,3.27-15.8l9.48-0.12C224.35,119.64,218.72,133.05,208.56,143.15z"/>
</g>
</svg>
