<?xml version="1.0" encoding="utf-8"?>
<!-- Generator: Adobe Illustrator 27.0.1, SVG Export Plug-In . SVG Version: 6.00 Build 0)  -->
<svg version="1.1" id="Layer_1" xmlns="http://www.w3.org/2000/svg" xmlns:xlink="http://www.w3.org/1999/xlink" x="0px" y="0px"
	  viewBox="0 0 186.25 186.25" style="enable-background:new 0 0 186.25 186.25;" xml:space="preserve">
<style type="text/css">
	.st0{fill:#006896;}
</style>
<g id="blue-stroke">
	<path class="st0" d="M139.14,50.97c-11.39-11.34-26.53-17.58-42.64-17.58s-31.25,6.24-42.64,17.58
		C42.48,62.31,36.2,77.39,36.2,93.43s6.27,31.12,17.66,42.46s26.53,17.58,42.64,17.58s31.25-6.24,42.64-17.58
		s17.66-26.42,17.66-42.46C156.81,77.39,150.53,62.31,139.14,50.97z M136.96,53.16c0.6,0.59,1.18,1.2,1.74,1.81
		c-17.78-0.28-35.8-0.3-53.29-0.31c0.49-1.25,0.87-2.53,1.19-3.75c1.21-4.56,2-9.25,2.37-13.95c2.48-0.32,4.99-0.49,7.53-0.49
		C111.79,36.48,126.15,42.41,136.96,53.16z M56.05,53.16c8.24-8.21,18.56-13.6,29.78-15.7c-0.38,4.27-1.13,8.52-2.22,12.66
		c-0.77,2.9-1.85,6.13-4.08,8.15c-2.95,2.67-7.41,3-12.12,3.12l-18.54,0.47C50.94,58.77,53.34,55.86,56.05,53.16z M41.41,77.99
		l8.74-0.12l0.17,26.28c0.04,6.71,0.09,13.65-1.78,20.13c-0.01,0.04-0.03,0.09-0.05,0.15c-5.98-9.15-9.2-19.82-9.2-31
		C39.3,88.14,40.02,82.95,41.41,77.99z M50.39,127.15c0.01-0.01,0.01-0.01,0.02-0.02c0.65-0.6,0.91-1.35,1.1-2
		c1.99-6.9,1.95-14.07,1.9-21l-0.17-26.3L63.4,77.7c0.34,20.68,0.41,41.64,0.21,62.35c-2.67-1.88-5.2-3.99-7.56-6.34
		C53.98,131.64,52.09,129.45,50.39,127.15z M76.73,146.9l-0.32-50.63c0-0.02-0.01-2.32,1.32-3.67c0.67-0.68,1.58-1.01,2.79-1.01
		c4,0,4.66,3.45,4.75,4.13c-0.04,1.4-0.42,15.6-0.42,23.66c0,1.66-0.38,2.73-1.13,3.19c-1.54,0.93-4.69-0.32-5.67-0.84l-0.72,1.37
		l-0.72,1.37c0.54,0.29,5.4,2.75,8.71,0.75c1.75-1.05,2.63-3.02,2.63-5.84c0-8.4,0.42-23.53,0.43-23.68v-0.09l-0.01-0.09
		c-0.23-2.42-2.16-7.01-7.84-7.01c-2.05,0-3.74,0.65-5,1.94c-2.24,2.29-2.21,5.74-2.2,5.87l0.31,49.35
		c-2.39-1.04-4.71-2.25-6.95-3.61c0.23-21.38,0.16-43.03-0.19-64.4l19.03-0.25c0.8,5.61,5.43,7.95,7.99,8.41l0.14,0.03l43.23-0.45
		c0.64,0.05,3.91,0.15,6.42-2.12c1.87-1.69,2.83-4.21,2.83-7.49c0-3.27-0.95-5.82-2.81-7.57c-2.54-2.38-5.88-2.35-6.41-2.33
		L93.8,65.68h-0.05c-0.08,0-7.52,0.55-8.27,8.64L42.4,74.89c1.18-3.42,2.69-6.73,4.52-9.87L67.5,64.5
		c5.31-0.13,10.39-0.53,14.12-3.92c0.92-0.83,1.67-1.79,2.3-2.81c18.71,0.01,38.57,0.02,57.59,0.35l0,0
		c7.7,9.44,11.61,20.47,12.17,32.7l-55.72,0.72c-2.81,0.06-8.19,1.89-8.42,8.4c-0.23,6.58-0.35,27.83-0.36,28.87
		c-0.03,0.52-0.1,3.96,2.16,6.39c1.44,1.55,3.46,2.33,6.01,2.33c5.54,0,26.94-0.36,36.04-0.52c-10.3,8.67-23.21,13.39-36.85,13.39
		C89.65,150.38,82.98,149.19,76.73,146.9z M88.49,75.66c0-6.18,4.66-6.83,5.39-6.9l43.09,0.21h0.05c0.02,0,2.45-0.11,4.17,1.49
		c1.22,1.14,1.83,2.93,1.83,5.31c0,2.36-0.6,4.1-1.79,5.18c-1.69,1.55-4.14,1.35-4.16,1.35l-0.07,0l-43.06,0.45
		C93.09,82.54,88.49,81.2,88.49,75.66z M92.24,128.95v-0.1c0-0.16,0.07-11.6,0.19-20.47l45.29,0.25c-0.12,0.36,0.13-0.37,0,0
		c-4.21,11.75-11.94,21.17-22.03,25.52l0,0c-7.86,0.12-15.37,0.26-18.37,0.26c-1.64,0-2.9-0.45-3.73-1.34
		C92.1,131.51,92.23,128.97,92.24,128.95z M138.65,105.55l-46.18-0.26c0.04-2.14,0.08-3.98,0.12-5.26c0.18-5.1,4.87-5.4,5.38-5.42
		l42.64-0.55C140.51,95.93,140.09,100.3,138.65,105.55z M136.96,133.7c-0.05,0.05-0.09,0.09-0.14,0.14
		c-1.87,0.03-7.79,0.14-14.57,0.25c8.17-5.08,14.35-13.07,18.03-23.41c2.72-7.64,3.31-14.3,3.44-16.65l9.98-0.13
		C153.59,108.94,147.65,123.05,136.96,133.7z"/>
</g>
</svg>
