<?xml version="1.0" encoding="utf-8"?>
<!-- Generator: Adobe Illustrator 27.0.1, SVG Export Plug-In . SVG Version: 6.00 Build 0)  -->
<svg version="1.1" id="Layer_1" xmlns="http://www.w3.org/2000/svg" xmlns:xlink="http://www.w3.org/1999/xlink" x="0px" y="0px"
	 viewBox="0 0 186.25 186.25" style="enable-background:new 0 0 186.25 186.25;" xml:space="preserve">
<style type="text/css">
	.st0{fill:#F68F7B;}
</style>
<g id="pink-stroke">
	<path class="st0" d="M139.13,51.41c-11.39-11.34-26.53-17.58-42.64-17.58s-31.25,6.24-42.64,17.58S36.19,77.83,36.19,93.87
		s6.27,31.12,17.66,42.46s26.53,17.58,42.64,17.58s31.25-6.24,42.64-17.58s17.66-26.42,17.66-42.46
		C156.79,77.83,150.52,62.75,139.13,51.41z M136.95,53.6c0.6,0.59,1.18,1.2,1.74,1.81c-17.78-0.28-35.8-0.3-53.29-0.31
		c0.49-1.25,0.87-2.53,1.19-3.75c1.21-4.56,2-9.25,2.37-13.95c2.48-0.32,4.99-0.49,7.53-0.49C111.77,36.92,126.14,42.84,136.95,53.6
		z M56.04,53.6C64.28,45.39,74.6,40,85.82,37.9c-0.38,4.27-1.13,8.52-2.22,12.66c-0.77,2.9-1.85,6.13-4.08,8.15
		c-2.95,2.67-7.41,3-12.12,3.12L48.85,62.3C50.93,59.21,53.33,56.29,56.04,53.6z M41.4,78.42l8.74-0.12l0.17,26.28
		c0.04,6.71,0.09,13.65-1.78,20.13c-0.01,0.04-0.03,0.09-0.05,0.15c-5.98-9.15-9.2-19.82-9.2-31C39.28,88.57,40.01,83.39,41.4,78.42
		z M50.38,127.59c0.01-0.01,0.01-0.01,0.02-0.02c0.65-0.6,0.91-1.35,1.1-2c1.99-6.9,1.95-14.07,1.9-21l-0.17-26.3l10.15-0.13
		c0.34,20.68,0.41,41.64,0.21,62.35c-2.67-1.88-5.2-3.99-7.56-6.34C53.97,132.08,52.08,129.89,50.38,127.59z M76.72,147.34
		L76.4,96.71c0-0.02-0.01-2.32,1.32-3.67c0.67-0.68,1.58-1.01,2.79-1.01c4,0,4.66,3.45,4.75,4.13c-0.04,1.4-0.42,15.6-0.42,23.66
		c0,1.66-0.38,2.73-1.13,3.19c-1.54,0.93-4.69-0.32-5.67-0.84l-0.72,1.37l-0.72,1.37c0.54,0.29,5.4,2.75,8.71,0.75
		c1.75-1.05,2.63-3.02,2.63-5.84c0-8.4,0.42-23.53,0.43-23.68v-0.09l-0.01-0.09c-0.23-2.42-2.16-7.01-7.84-7.01
		c-2.05,0-3.74,0.65-5,1.94c-2.24,2.29-2.21,5.74-2.2,5.87l0.31,49.35c-2.39-1.04-4.71-2.25-6.95-3.61
		c0.23-21.38,0.16-43.03-0.19-64.4l19.03-0.25c0.8,5.61,5.43,7.95,7.99,8.41l0.14,0.03l43.23-0.45c0.64,0.05,3.91,0.15,6.42-2.12
		c1.87-1.69,2.83-4.21,2.83-7.49c0-3.27-0.95-5.82-2.81-7.57c-2.54-2.38-5.88-2.35-6.41-2.33l-43.12-0.21h-0.05
		c-0.08,0-7.52,0.55-8.27,8.64l-43.08,0.57c1.18-3.42,2.69-6.73,4.52-9.87l20.58-0.52c5.31-0.13,10.39-0.53,14.12-3.92
		c0.92-0.83,1.67-1.79,2.3-2.81c18.71,0.01,38.57,0.02,57.59,0.35l0,0c7.7,9.44,11.61,20.47,12.17,32.7l-55.72,0.72
		c-2.81,0.06-8.19,1.89-8.42,8.4c-0.23,6.58-0.35,27.83-0.36,28.87c-0.03,0.52-0.1,3.96,2.16,6.39c1.44,1.55,3.46,2.33,6.01,2.33
		c5.54,0,26.94-0.36,36.04-0.52c-10.3,8.67-23.21,13.39-36.85,13.39C89.64,150.82,82.97,149.62,76.72,147.34z M88.48,76.1
		c0-6.18,4.66-6.83,5.39-6.9l43.09,0.21h0.05c0.02,0,2.45-0.11,4.17,1.49c1.22,1.14,1.83,2.93,1.83,5.31c0,2.36-0.6,4.1-1.79,5.18
		c-1.69,1.55-4.14,1.35-4.16,1.35l-0.09-0.01l-43.06,0.45C93.08,82.98,88.48,81.64,88.48,76.1z M92.22,129.39v-0.1
		c0-0.16,0.07-11.6,0.19-20.47l45.29,0.25c-0.12,0.36,0.13-0.37,0,0c-4.21,11.75-11.94,21.17-22.03,25.52l0,0
		c-7.86,0.12-15.37,0.26-18.37,0.26c-1.64,0-2.9-0.45-3.73-1.34C92.09,131.95,92.22,129.41,92.22,129.39z M138.64,105.98
		l-46.18-0.26c0.04-2.14,0.08-3.98,0.12-5.26c0.18-5.1,4.87-5.4,5.38-5.42l42.64-0.55C140.49,96.37,140.08,100.73,138.64,105.98z
		 M136.95,134.14c-0.05,0.05-0.09,0.09-0.14,0.14c-1.87,0.03-7.79,0.14-14.57,0.25c8.17-5.08,14.35-13.07,18.03-23.41
		c2.72-7.64,3.31-14.3,3.44-16.65l9.98-0.13C153.57,109.37,147.64,123.49,136.95,134.14z"/>
</g>
</svg>
