<?xml version="1.0" encoding="utf-8"?>
<!-- Generator: Adobe Illustrator 27.0.1, SVG Export Plug-In . SVG Version: 6.00 Build 0)  -->
<svg version="1.1" id="Layer_1" xmlns="http://www.w3.org/2000/svg" xmlns:xlink="http://www.w3.org/1999/xlink" x="0px" y="0px"
	 viewBox="0 0 468.32 186.25" style="enable-background:new 0 0 468.32 186.25;" xml:space="preserve">
<style type="text/css">
	.st0{fill:#F68F7B;}
</style>
<g id="pink-stroke">
	<g>
		<path d="M183.22,97.17l-0.98-0.77c1.73-3.88,2.59-10,2.59-18.36V68.3l6.03,0.63c-0.14,0.98-0.94,1.57-2.38,1.75v7.43
			C188.47,86.71,186.72,93.06,183.22,97.17z M193.24,104.04V62.07h-10.3l-0.49-2.03h17.52l3.15-4.13c1.92,1.68,3.83,3.36,5.75,5.04
			c-0.14,0.75-0.75,1.12-1.82,1.12h-9.67v40.57c0,0.23-0.33,0.51-0.98,0.84c-0.75,0.37-1.59,0.56-2.52,0.56
			C193.88,104.04,193.24,104.04,193.24,104.04z M184.76,47.49l-0.56-2.1h13.52l3.22-3.92c0.7,0.56,1.42,1.1,2.17,1.61
			c1.63,1.31,2.94,2.41,3.92,3.29c-0.19,0.75-0.82,1.12-1.89,1.12H184.76z M201.72,93.6V68.16l6.03,0.63
			c-0.14,0.98-0.89,1.57-2.24,1.75v21.51c0,0.28-0.35,0.61-1.05,0.98s-1.38,0.56-2.03,0.56L201.72,93.6L201.72,93.6z M209.5,47.49
			l-0.56-2.1h28.38l3.22-4.06c0.7,0.56,1.42,1.12,2.17,1.68c1.63,1.36,2.9,2.48,3.78,3.36c-0.14,0.75-0.72,1.12-1.75,1.12H209.5z
			 M210.55,104.25v-30.9l5.04,2.17h23.4l2.17-2.73l5.04,3.92c-0.47,0.61-1.33,1-2.59,1.19v24.24c0,0.19-0.37,0.44-1.12,0.77
			c-0.84,0.37-1.68,0.56-2.52,0.56h-0.7v-3.15h-24.52v2.52c0,0.23-0.33,0.51-0.98,0.84c-0.75,0.37-1.61,0.56-2.59,0.56h-0.63V104.25
			z M214.19,71.38V52.12l5.04,2.17h15.91l2.17-2.59l4.83,3.71c-0.51,0.56-1.31,0.93-2.38,1.12v13.03c0,0.19-0.37,0.45-1.12,0.77
			c-0.84,0.37-1.71,0.56-2.59,0.56h-0.77v-2.87h-16.89v2.03c0,0.28-0.3,0.56-0.91,0.84c-0.75,0.33-1.64,0.49-2.66,0.49L214.19,71.38
			L214.19,71.38z M214.75,86.59h9.95v-9.04h-9.95V86.59z M214.75,98.29h9.95v-9.6h-9.95V98.29z M218.39,65.99h16.89v-9.67h-16.89
			V65.99z M228.9,86.59h10.37v-9.04H228.9V86.59z M228.9,98.29h10.37v-9.6H228.9V98.29z"/>
		<path d="M269.4,97.17l-0.98-0.77c1.73-3.88,2.59-10,2.59-18.36V68.3l6.03,0.63c-0.14,0.98-0.94,1.57-2.38,1.75v7.43
			C274.66,86.71,272.91,93.06,269.4,97.17z M279.42,104.04V62.07h-10.3l-0.49-2.03h17.52l3.15-4.13c1.92,1.68,3.83,3.36,5.75,5.04
			c-0.14,0.75-0.75,1.12-1.82,1.12h-9.67v40.57c0,0.23-0.33,0.51-0.98,0.84c-0.75,0.37-1.59,0.56-2.52,0.56
			C280.06,104.04,279.42,104.04,279.42,104.04z M270.94,47.49l-0.56-2.1h13.52l3.22-3.92c0.7,0.56,1.42,1.1,2.17,1.61
			c1.63,1.31,2.94,2.41,3.92,3.29c-0.19,0.75-0.82,1.12-1.89,1.12H270.94z M287.9,93.6V68.16l6.03,0.63
			c-0.14,0.98-0.89,1.57-2.24,1.75v21.51c0,0.28-0.35,0.61-1.05,0.98c-0.7,0.37-1.38,0.56-2.03,0.56L287.9,93.6L287.9,93.6z
			 M295.68,47.49l-0.56-2.1h28.38l3.22-4.06c0.7,0.56,1.42,1.12,2.17,1.68c1.63,1.36,2.9,2.48,3.78,3.36
			c-0.14,0.75-0.72,1.12-1.75,1.12H295.68z M296.73,104.25v-30.9l5.04,2.17h23.4l2.17-2.73l5.04,3.92c-0.47,0.61-1.33,1-2.59,1.19
			v24.24c0,0.19-0.37,0.44-1.12,0.77c-0.84,0.37-1.68,0.56-2.52,0.56h-0.7v-3.15h-24.52v2.52c0,0.23-0.33,0.51-0.98,0.84
			c-0.75,0.37-1.61,0.56-2.59,0.56h-0.63V104.25z M300.37,71.38V52.12l5.04,2.17h15.91l2.17-2.59l4.83,3.71
			c-0.51,0.56-1.31,0.93-2.38,1.12v13.03c0,0.19-0.37,0.45-1.12,0.77c-0.84,0.37-1.71,0.56-2.59,0.56h-0.77v-2.87h-16.89v2.03
			c0,0.28-0.3,0.56-0.91,0.84c-0.75,0.33-1.64,0.49-2.66,0.49L300.37,71.38L300.37,71.38z M300.93,86.59h9.95v-9.04h-9.95V86.59z
			 M300.93,98.29h9.95v-9.6h-9.95V98.29z M304.58,65.99h16.89v-9.67h-16.89L304.58,65.99L304.58,65.99z M315.09,86.59h10.37v-9.04
			h-10.37V86.59z M315.09,98.29h10.37v-9.6h-10.37V98.29z"/>
		<path d="M352.15,65.85c-1.03-0.05-1.73-0.49-2.1-1.33c-0.28-0.7-0.23-1.4,0.14-2.1c0.37-0.65,0.93-1.19,1.68-1.61
			c1.45-0.79,2.62-2.15,3.5-4.06c0.93-1.96,1.26-4.06,0.98-6.31l1.19-0.07c0.37,1.03,0.68,2.15,0.91,3.36h20.25V39.99l7.15,0.77
			c-0.14,1.08-0.96,1.71-2.45,1.89v11.07h6.94c2.9-4.3,5.18-8.38,6.87-12.26l7.15,2.66c-0.42,0.89-1.36,1.24-2.8,1.05
			c-2.48,2.94-5.49,5.79-9.04,8.55h12.19l3.01-3.15l5.54,5.33c-0.42,0.33-1.33,0.54-2.73,0.63c-2.06,2.57-4.62,4.88-7.71,6.94
			l-0.91-0.56c0.75-1.4,1.73-3.81,2.94-7.22h-46.17c0.14,2.2-0.16,4.18-0.91,5.96c-0.65,1.5-1.54,2.62-2.66,3.36
			C354.12,65.62,353.13,65.9,352.15,65.85z M351.59,102.35l-0.56-2.03h27.75V89.11H358.6l-0.56-2.03h20.74v-9.6h-11.49v2.31
			c0,0.23-0.4,0.54-1.19,0.91c-0.84,0.37-1.71,0.56-2.59,0.56h-0.63V60.94l4.76,2.17h26.7l2.38-2.52l5.4,3.99
			c-0.56,0.66-1.45,1.08-2.66,1.26v13.03c-0.05,0.23-0.49,0.54-1.33,0.91c-0.93,0.37-1.75,0.56-2.45,0.56h-0.63v-2.87H383.4v9.6
			h13.45l3.22-3.99c2.01,1.64,3.99,3.27,5.96,4.91c-0.19,0.75-0.82,1.12-1.89,1.12H383.4v11.21h19.41l3.36-4.27
			c2.1,1.73,4.18,3.48,6.24,5.25c-0.14,0.7-0.77,1.05-1.89,1.05L351.59,102.35L351.59,102.35z M370.09,53.13
			c-0.89,0.63-1.92,0.53-3.08-0.32c-0.23-1.73-1.05-3.62-2.45-5.67c-1.31-1.87-2.78-3.46-4.41-4.76l0.77-0.63
			c3.32,0.93,5.91,2.24,7.78,3.92c1.49,1.4,2.33,2.87,2.52,4.41C371.35,51.49,370.98,52.5,370.09,53.13z M367.29,75.38h27.75V65.22
			h-27.75V75.38z"/>
	</g>
	<g>
		<path d="M196.28,140.82c-0.15-1.25-0.45-2.06-0.89-2.45s-1.25-0.59-2.43-0.61l-4.77-0.03v6.8c0,1.87,1.04,2.81,3.13,2.81v0.48
			h-8.48v-0.48c1.14,0,1.93-0.22,2.37-0.66s0.66-1.27,0.66-2.5v-13.09c0-0.92-0.18-1.6-0.53-2.03s-1.19-0.7-2.5-0.81v-0.48h16.09
			l0.1,4.35h-0.68c-0.24-1.38-0.66-2.3-1.27-2.77s-1.75-0.71-3.4-0.71h-4.51c-0.64,0-0.97,0.34-0.97,1.03v7.19h4.77
			c1.23,0,2.05-0.21,2.47-0.63s0.7-1.23,0.85-2.43H197v7.03L196.28,140.82L196.28,140.82z"/>
		<path d="M228.39,128.25c-1.2,0.13-2,0.43-2.4,0.92c-0.4,0.48-0.6,1.5-0.6,3.05v7.9c0,3.05-0.65,5.17-1.93,6.35
			c-1.29,1.18-3.2,1.77-5.74,1.77c-2.39,0-4.18-0.58-5.37-1.74s-1.79-3.15-1.79-5.96v-9.45c0-1.1-0.22-1.84-0.66-2.24
			s-1.25-0.6-2.43-0.6v-0.48h8.58v0.48c-1.23,0-2.06,0.19-2.5,0.58s-0.66,1.14-0.66,2.26v9.67c0,4.28,1.89,6.42,5.67,6.42
			c3.89,0,5.84-2.26,5.84-6.77v-8.19c0-1.55-0.23-2.6-0.68-3.14c-0.45-0.55-1.24-0.82-2.35-0.82v-0.48h7.03v0.47H228.39z"/>
		<path d="M250.44,140.82c-0.15-1.25-0.45-2.06-0.89-2.45s-1.25-0.59-2.43-0.61l-4.77-0.03v6.8c0,1.87,1.04,2.81,3.13,2.81v0.48H237
			v-0.48c1.14,0,1.93-0.22,2.37-0.66s0.66-1.27,0.66-2.5v-13.09c0-0.92-0.18-1.6-0.53-2.03s-1.19-0.7-2.5-0.81v-0.48h16.09l0.1,4.35
			h-0.68c-0.24-1.38-0.66-2.3-1.27-2.77s-1.75-0.71-3.4-0.71h-4.51c-0.64,0-0.97,0.34-0.97,1.03v7.19h4.77
			c1.23,0,2.05-0.21,2.47-0.63s0.7-1.23,0.85-2.43h0.71v7.03L250.44,140.82L250.44,140.82z"/>
		<path d="M282.56,128.25c-1.2,0.13-2,0.43-2.4,0.92c-0.4,0.48-0.6,1.5-0.6,3.05v7.9c0,3.05-0.65,5.17-1.93,6.35
			c-1.29,1.18-3.2,1.77-5.74,1.77c-2.39,0-4.18-0.58-5.37-1.74s-1.79-3.15-1.79-5.96v-9.45c0-1.1-0.22-1.84-0.66-2.24
			s-1.25-0.6-2.43-0.6v-0.48h8.58v0.48c-1.23,0-2.06,0.19-2.5,0.58s-0.66,1.14-0.66,2.26v9.67c0,4.28,1.89,6.42,5.67,6.42
			c3.89,0,5.84-2.26,5.84-6.77v-8.19c0-1.55-0.23-2.6-0.68-3.14c-0.45-0.55-1.24-0.82-2.35-0.82v-0.48h7.03v0.47H282.56z"/>
		<path d="M323.02,147.82h-8.87v-0.48c1.33,0,2.2-0.23,2.61-0.68c0.41-0.45,0.61-1.28,0.61-2.48v-15.54h-1.64
			c-1.68,0-2.89,0.3-3.64,0.9c-0.75,0.6-1.29,1.73-1.61,3.39h-0.65l0.19-5.16h17.06l0.19,5.16h-0.64c-0.3-1.65-0.83-2.78-1.6-3.39
			c-0.76-0.6-1.99-0.9-3.69-0.9h-1.64v15.9c0,1.05,0.24,1.79,0.71,2.19c0.47,0.41,1.34,0.61,2.61,0.61L323.02,147.82L323.02,147.82z
			"/>
		<path d="M355.33,147.82h-7.71v-0.48c1.63,0,2.45-0.45,2.45-1.35c0-0.34-0.19-0.98-0.58-1.9l-1.29-3h-8.54l-1.45,3.74
			c-0.17,0.45-0.26,0.84-0.26,1.16c0,0.9,0.82,1.35,2.45,1.35v0.48h-6v-0.48c0.49,0,0.99-0.24,1.5-0.73
			c0.5-0.48,1.26-1.93,2.27-4.34l6.29-14.86h0.39l7.38,17.19c0.79,1.83,1.83,2.74,3.09,2.74L355.33,147.82L355.33,147.82z
			 M347.85,140.21l-3.97-9.32l-3.84,9.32L347.85,140.21L347.85,140.21z"/>
		<path d="M383.35,128.25c-1.4,0.15-2.26,0.53-2.58,1.13c-0.32,0.6-0.48,1.55-0.48,2.84v15.93h-0.32l-13.54-16.93l-0.06,12.16
			c0,1.55,0.22,2.6,0.66,3.14s1.24,0.82,2.4,0.82v0.48h-7.13v-0.48c1.18,0,2-0.26,2.45-0.79s0.68-1.58,0.68-3.18v-13.41
			c-0.9-1.14-1.95-1.71-3.13-1.71v-0.48h4.55l12.45,15.67l0.06-11.22c0-1.44-0.2-2.46-0.61-3.06c-0.41-0.6-1.25-0.9-2.52-0.9v-0.48
			h7.13v0.47H383.35z"/>
		<path d="M411.4,137.5c-1.05,0.11-1.72,0.35-2.01,0.72c-0.29,0.38-0.44,0.96-0.44,1.76v6.09c0,0.3-0.82,0.74-2.47,1.31
			s-3.17,0.85-4.56,0.85c-3.48,0-6.19-0.95-8.12-2.84s-2.9-4.52-2.9-7.9c0-2.77,0.98-5.16,2.93-7.16s4.43-3,7.42-3
			c0.99,0,1.92,0.13,2.8,0.39c0.88,0.26,1.77,0.52,2.68,0.77c0.71,0,1.17-0.39,1.39-1.16h0.64l0.26,6.38h-0.58
			c-1.35-3.68-3.61-5.51-6.77-5.51c-2.24,0-4.17,0.88-5.79,2.64s-2.43,4.18-2.43,7.25c0,2.73,0.85,4.96,2.55,6.67
			c1.7,1.72,3.76,2.58,6.19,2.58c1.05,0,2.06-0.22,3.01-0.66c0.96-0.44,1.44-0.93,1.44-1.47v-4.9c0-1.18-0.22-1.95-0.65-2.31
			c-0.43-0.35-1.2-0.53-2.32-0.53v-0.42h7.74v0.45H411.4z"/>
	</g>
	<path class="st0" d="M139.13,51.41c-11.39-11.34-26.53-17.58-42.64-17.58s-31.25,6.24-42.64,17.58S36.19,77.83,36.19,93.87
		s6.27,31.12,17.66,42.46s26.53,17.58,42.64,17.58s31.25-6.24,42.64-17.58s17.66-26.42,17.66-42.46
		C156.79,77.83,150.52,62.75,139.13,51.41z M136.95,53.6c0.6,0.59,1.18,1.2,1.74,1.81c-17.78-0.28-35.8-0.3-53.29-0.31
		c0.49-1.25,0.87-2.53,1.19-3.75c1.21-4.56,2-9.25,2.37-13.95c2.48-0.32,4.99-0.49,7.53-0.49C111.77,36.92,126.14,42.84,136.95,53.6
		z M56.04,53.6C64.28,45.39,74.6,40,85.82,37.9c-0.38,4.27-1.13,8.52-2.22,12.66c-0.77,2.9-1.85,6.13-4.08,8.15
		c-2.95,2.67-7.41,3-12.12,3.12L48.85,62.3C50.93,59.21,53.33,56.29,56.04,53.6z M41.4,78.42l8.74-0.12l0.17,26.28
		c0.04,6.71,0.09,13.65-1.78,20.13c-0.01,0.04-0.03,0.09-0.05,0.15c-5.98-9.15-9.2-19.82-9.2-31C39.28,88.57,40.01,83.39,41.4,78.42
		z M50.38,127.59c0.01-0.01,0.01-0.01,0.02-0.02c0.65-0.6,0.91-1.35,1.1-2c1.99-6.9,1.95-14.07,1.9-21l-0.17-26.3l10.15-0.13
		c0.34,20.68,0.41,41.64,0.21,62.35c-2.67-1.88-5.2-3.99-7.56-6.34C53.97,132.08,52.08,129.89,50.38,127.59z M76.72,147.34
		L76.4,96.71c0-0.02-0.01-2.32,1.32-3.67c0.67-0.68,1.58-1.01,2.79-1.01c4,0,4.66,3.45,4.75,4.13c-0.04,1.4-0.42,15.6-0.42,23.66
		c0,1.66-0.38,2.73-1.13,3.19c-1.54,0.93-4.69-0.32-5.67-0.84l-0.72,1.37l-0.72,1.37c0.54,0.29,5.4,2.75,8.71,0.75
		c1.75-1.05,2.63-3.02,2.63-5.84c0-8.4,0.42-23.53,0.43-23.68v-0.09l-0.01-0.09c-0.23-2.42-2.16-7.01-7.84-7.01
		c-2.05,0-3.74,0.65-5,1.94c-2.24,2.29-2.21,5.74-2.2,5.87l0.31,49.35c-2.39-1.04-4.71-2.25-6.95-3.61
		c0.23-21.38,0.16-43.03-0.19-64.4l19.03-0.25c0.8,5.61,5.43,7.95,7.99,8.41l0.14,0.03l43.23-0.45c0.64,0.05,3.91,0.15,6.42-2.12
		c1.87-1.69,2.83-4.21,2.83-7.49c0-3.27-0.95-5.82-2.81-7.57c-2.54-2.38-5.88-2.35-6.41-2.33l-43.12-0.21h-0.05
		c-0.08,0-7.52,0.55-8.27,8.64l-43.08,0.57c1.18-3.42,2.69-6.73,4.52-9.87l20.58-0.52c5.31-0.13,10.39-0.53,14.12-3.92
		c0.92-0.83,1.67-1.79,2.3-2.81c18.71,0.01,38.57,0.02,57.59,0.35l0,0c7.7,9.44,11.61,20.47,12.17,32.7l-55.72,0.72
		c-2.81,0.06-8.19,1.89-8.42,8.4c-0.23,6.58-0.35,27.83-0.36,28.87c-0.03,0.52-0.1,3.96,2.16,6.39c1.44,1.55,3.46,2.33,6.01,2.33
		c5.54,0,26.94-0.36,36.04-0.52c-10.3,8.67-23.21,13.39-36.85,13.39C89.64,150.82,82.97,149.62,76.72,147.34z M88.48,76.1
		c0-6.18,4.66-6.83,5.39-6.9l43.09,0.21h0.05c0.02,0,2.45-0.11,4.17,1.49c1.22,1.14,1.83,2.93,1.83,5.31c0,2.36-0.6,4.1-1.79,5.18
		c-1.69,1.55-4.14,1.35-4.16,1.35l-0.09-0.01l-43.06,0.45C93.08,82.98,88.48,81.64,88.48,76.1z M92.22,129.39v-0.1
		c0-0.16,0.07-11.6,0.19-20.47l45.29,0.25c-0.12,0.36,0.13-0.37,0,0c-4.21,11.75-11.94,21.17-22.03,25.52l0,0
		c-7.86,0.12-15.37,0.26-18.37,0.26c-1.64,0-2.9-0.45-3.73-1.34C92.09,131.95,92.22,129.41,92.22,129.39z M138.64,105.98
		l-46.18-0.26c0.04-2.14,0.08-3.98,0.12-5.26c0.18-5.1,4.87-5.4,5.38-5.42l42.64-0.55C140.49,96.37,140.08,100.73,138.64,105.98z
		 M136.95,134.14c-0.05,0.05-0.09,0.09-0.14,0.14c-1.87,0.03-7.79,0.14-14.57,0.25c8.17-5.08,14.35-13.07,18.03-23.41
		c2.72-7.64,3.31-14.3,3.44-16.65l9.98-0.13C153.57,109.37,147.64,123.49,136.95,134.14z"/>
</g>
</svg>
