<?xml version="1.0" encoding="utf-8"?>
<!-- Generator: Adobe Illustrator 27.0.1, SVG Export Plug-In . SVG Version: 6.00 Build 0)  -->
<svg version="1.1" id="Layer_1" xmlns="http://www.w3.org/2000/svg" xmlns:xlink="http://www.w3.org/1999/xlink" x="0px" y="0px"
	 viewBox="0 0 302.3 307.18" style="enable-background:new 0 0 302.3 307.18;" xml:space="preserve">
<style type="text/css">
	.st0{fill:#006896;}
	.st1{opacity:0.15;fill:#FFFFFF;enable-background:new    ;}
	.st2{fill:#FFFFFF;}
</style>
<g id="blue-round">
	<circle class="st0" cx="150.18" cy="145.43" r="127.13"/>
	<path class="st1" d="M227.55,67.51c-20.78-20.69-48.42-32.09-77.81-32.09s-57.02,11.4-77.81,32.09
		C51.15,88.21,39.7,115.73,39.7,145s11.45,56.79,32.24,77.49c20.78,20.69,48.42,32.09,77.81,32.09s57.02-11.4,77.81-32.09
		c20.79-20.7,32.24-48.21,32.24-77.49C259.79,115.73,248.34,88.21,227.55,67.51z M223.57,71.51c1.09,1.08,2.14,2.19,3.18,3.31
		c-32.45-0.52-65.33-0.55-97.25-0.56c0.89-2.29,1.58-4.62,2.17-6.85c2.2-8.32,3.65-16.87,4.33-25.46c4.52-0.59,9.11-0.89,13.75-0.89
		C177.63,41.07,203.85,51.88,223.57,71.51z M75.92,71.51c15.05-14.98,33.88-24.82,54.35-28.64c-0.7,7.79-2.05,15.55-4.05,23.11
		c-1.4,5.29-3.38,11.19-7.45,14.88c-5.38,4.87-13.53,5.47-22.11,5.69L62.81,87.4C66.6,81.75,70.98,76.43,75.92,71.51z M49.21,116.81
		l15.95-0.21l0.3,47.95c0.08,12.25,0.16,24.92-3.25,36.73c-0.02,0.06-0.05,0.17-0.08,0.28C51.21,184.87,45.34,165.39,45.34,145
		C45.34,135.33,46.66,125.87,49.21,116.81z M65.59,206.54c0.01-0.01,0.03-0.02,0.04-0.03c1.19-1.09,1.66-2.46,2-3.66
		c3.64-12.59,3.56-25.68,3.48-38.33l-0.3-47.99l18.52-0.24c0.62,37.74,0.75,75.98,0.38,113.78c-4.87-3.42-9.49-7.29-13.79-11.57
		C72.15,214.73,68.7,210.73,65.59,206.54z M113.66,242.58l-0.58-92.4c0-0.04-0.01-4.23,2.4-6.69c1.22-1.25,2.89-1.85,5.1-1.85
		c7.3,0,8.5,6.3,8.66,7.54c-0.07,2.56-0.77,28.47-0.77,43.17c0,3.03-0.7,4.99-2.07,5.82c-2.82,1.71-8.56-0.59-10.35-1.53l-1.31,2.5
		l-1.32,2.49c0.99,0.52,9.85,5.01,15.89,1.37c3.19-1.92,4.8-5.51,4.8-10.66c0-15.32,0.77-42.94,0.78-43.22v-0.17l-0.02-0.17
		c-0.41-4.42-3.93-12.79-14.3-12.79c-3.75,0-6.82,1.19-9.12,3.54c-4.09,4.17-4.02,10.48-4.02,10.71l0.56,90.07
		c-4.37-1.9-8.6-4.1-12.69-6.59c0.41-39.01,0.3-78.53-0.35-117.52l34.74-0.46c1.47,10.23,9.91,14.51,14.58,15.35l0.26,0.05
		l78.88-0.83c1.16,0.08,7.14,0.27,11.72-3.86c3.42-3.09,5.16-7.69,5.16-13.68c0-5.97-1.73-10.62-5.13-13.81
		c-4.63-4.34-10.73-4.28-11.7-4.24l-78.68-0.38l-0.09,0.01c-0.14,0.01-13.72,1-15.09,15.76l-78.61,1.04
		c2.16-6.25,4.91-12.28,8.24-18.01l37.55-0.95c9.69-0.24,18.95-0.98,25.76-7.15c1.67-1.51,3.04-3.26,4.19-5.13
		c34.15,0.01,70.38,0.03,105.09,0.63l0,0c14.05,17.22,21.19,37.35,22.2,59.67l-101.69,1.31c-5.13,0.11-14.95,3.46-15.37,15.33
		c-0.42,12-0.65,50.79-0.66,52.69c-0.05,0.95-0.18,7.23,3.94,11.65c2.63,2.83,6.32,4.26,10.96,4.26c10.11,0,49.17-0.67,65.78-0.96
		c-18.8,15.82-42.36,24.44-67.26,24.44C137.23,248.93,125.06,246.75,113.66,242.58z M135.13,112.57c0-11.27,8.5-12.47,9.84-12.59
		l78.64,0.38l0.1-0.01c0.04,0,4.48-0.2,7.6,2.72c2.22,2.08,3.35,5.34,3.35,9.69c0,4.3-1.1,7.48-3.26,9.46
		c-3.09,2.82-7.56,2.46-7.59,2.46l-0.16-0.02l-78.59,0.82C143.51,125.13,135.13,122.68,135.13,112.57z M141.96,209.82l0.01-0.18
		c0-0.29,0.12-21.17,0.34-37.36l82.64,0.46c-0.22,0.66,0.24-0.67,0,0c-7.68,21.44-21.78,38.63-40.21,46.58l0,0
		c-14.34,0.23-28.05,0.48-33.52,0.48c-3,0-5.29-0.82-6.81-2.44C141.71,214.49,141.95,209.85,141.96,209.82z M226.66,167.11
		l-84.27-0.47c0.07-3.9,0.14-7.26,0.22-9.6c0.33-9.31,8.89-9.85,9.82-9.88l77.82-1C230.04,149.56,229.29,157.52,226.66,167.11z
		 M223.57,218.48c-0.09,0.08-0.17,0.17-0.26,0.25c-3.42,0.06-14.22,0.25-26.58,0.46c14.9-9.27,26.18-23.85,32.91-42.73
		c4.97-13.95,6.05-26.1,6.28-30.38l18.22-0.23C253.92,173.29,243.09,199.06,223.57,218.48z"/>
	<g>
		<path class="st2" d="M72.99,130.79l-1.08-0.85c1.9-4.26,2.85-10.99,2.85-20.19V99.04l6.63,0.69c-0.15,1.08-1.03,1.72-2.62,1.93
			v8.17C78.77,119.28,76.85,126.27,72.99,130.79z M84.01,138.34V92.18H72.69l-0.54-2.23h19.26l3.47-4.55
			c2.11,1.85,4.21,3.7,6.32,5.55c-0.15,0.82-0.82,1.23-2,1.23H88.56v44.61c0,0.26-0.36,0.57-1.08,0.92
			c-0.82,0.41-1.75,0.62-2.77,0.62L84.01,138.34L84.01,138.34z M74.69,76.16l-0.62-2.31h14.87l3.54-4.31
			c0.77,0.62,1.57,1.21,2.39,1.77c1.8,1.44,3.24,2.65,4.31,3.62c-0.21,0.82-0.9,1.23-2.08,1.23C97.1,76.16,74.69,76.16,74.69,76.16z
			 M93.34,126.86V98.89l6.63,0.69c-0.15,1.08-0.98,1.72-2.47,1.93v23.65c0,0.31-0.38,0.67-1.16,1.08c-0.77,0.41-1.52,0.62-2.23,0.62
			C94.11,126.86,93.34,126.86,93.34,126.86z M101.89,76.16l-0.62-2.31h31.21l3.54-4.47c0.77,0.62,1.57,1.23,2.39,1.85
			c1.8,1.49,3.18,2.72,4.16,3.7c-0.15,0.82-0.8,1.23-1.93,1.23H101.89z M103.04,138.57v-33.98l5.55,2.39h25.73l2.39-3.01l5.55,4.32
			c-0.51,0.67-1.46,1.11-2.85,1.31v26.66c0,0.21-0.41,0.49-1.23,0.85c-0.92,0.41-1.85,0.62-2.77,0.62h-0.77v-3.47h-26.97v2.77
			c0,0.26-0.36,0.56-1.08,0.92c-0.82,0.41-1.77,0.62-2.85,0.62H103.04z M107.05,102.43V81.24l5.55,2.39h17.49l2.39-2.85l5.32,4.08
			c-0.57,0.62-1.44,1.03-2.62,1.23v14.33c0,0.21-0.41,0.49-1.23,0.85c-0.92,0.41-1.88,0.62-2.85,0.62h-0.85v-3.16h-18.57v2.23
			c0,0.31-0.33,0.62-1,0.92c-0.82,0.36-1.8,0.54-2.93,0.54L107.05,102.43L107.05,102.43z M107.67,119.15h10.94v-9.94h-10.94V119.15z
			 M107.67,132.02h10.94v-10.56h-10.94V132.02z M111.67,96.5h18.57V85.87h-18.57C111.67,85.87,111.67,96.5,111.67,96.5z
			 M123.23,119.15h11.4v-9.94h-11.4V119.15z M123.23,132.02h11.4v-10.56h-11.4V132.02z"/>
		<path class="st2" d="M156.98,130.79l-1.08-0.85c1.9-4.26,2.85-10.99,2.85-20.19V99.04l6.63,0.69c-0.15,1.08-1.03,1.72-2.62,1.93
			v8.17C162.76,119.28,160.83,126.27,156.98,130.79z M168,138.34V92.18h-11.33l-0.54-2.23h19.26l3.47-4.55
			c2.11,1.85,4.21,3.7,6.32,5.55c-0.15,0.82-0.82,1.23-2,1.23h-10.63v44.61c0,0.26-0.36,0.57-1.08,0.92
			c-0.82,0.41-1.75,0.62-2.77,0.62L168,138.34L168,138.34z M158.67,76.16l-0.62-2.31h14.87l3.54-4.31c0.77,0.62,1.57,1.21,2.39,1.77
			c1.8,1.44,3.24,2.65,4.31,3.62c-0.21,0.82-0.9,1.23-2.08,1.23C181.08,76.16,158.67,76.16,158.67,76.16z M177.32,126.86V98.89
			l6.63,0.69c-0.15,1.08-0.98,1.72-2.47,1.93v23.65c0,0.31-0.38,0.67-1.16,1.08c-0.77,0.41-1.52,0.62-2.23,0.62
			C178.09,126.86,177.32,126.86,177.32,126.86z M185.87,76.16l-0.62-2.31h31.21l3.54-4.47c0.77,0.62,1.57,1.23,2.39,1.85
			c1.8,1.49,3.18,2.72,4.16,3.7c-0.15,0.82-0.8,1.23-1.93,1.23H185.87z M187.03,138.57v-33.98l5.55,2.39h25.73l2.39-3.01l5.55,4.32
			c-0.51,0.67-1.46,1.11-2.85,1.31v26.66c0,0.21-0.41,0.49-1.23,0.85c-0.92,0.41-1.85,0.62-2.77,0.62h-0.77v-3.47h-26.97v2.77
			c0,0.26-0.36,0.56-1.08,0.92c-0.82,0.41-1.77,0.62-2.85,0.62H187.03z M191.04,102.43V81.24l5.55,2.39h17.49l2.39-2.85l5.32,4.08
			c-0.57,0.62-1.44,1.03-2.62,1.23v14.33c0,0.21-0.41,0.49-1.23,0.85c-0.92,0.41-1.88,0.62-2.85,0.62h-0.85v-3.16h-18.57v2.23
			c0,0.31-0.33,0.62-1,0.92c-0.82,0.36-1.8,0.54-2.93,0.54L191.04,102.43L191.04,102.43z M191.65,119.15h10.94v-9.94h-10.94V119.15z
			 M191.65,132.02h10.94v-10.56h-10.94V132.02z M195.66,96.5h18.57V85.87h-18.57V96.5z M207.22,119.15h11.4v-9.94h-11.4V119.15z
			 M207.22,132.02h11.4v-10.56h-11.4V132.02z"/>
		<path class="st2" d="M75.38,182.46c-1.13-0.05-1.9-0.54-2.31-1.46c-0.31-0.77-0.26-1.54,0.15-2.31c0.41-0.72,1.03-1.31,1.85-1.77
			c1.59-0.87,2.88-2.36,3.85-4.47c1.03-2.16,1.39-4.47,1.08-6.93l1.31-0.08c0.41,1.13,0.74,2.36,1,3.7h22.27v-15.1l7.86,0.85
			c-0.15,1.18-1.05,1.88-2.7,2.08v12.17h7.63c3.18-4.73,5.7-9.22,7.55-13.48l7.86,2.93c-0.46,0.98-1.49,1.36-3.08,1.16
			c-2.72,3.24-6.04,6.37-9.94,9.4h13.41l3.31-3.47l6.09,5.86c-0.46,0.36-1.46,0.59-3,0.69c-2.26,2.83-5.08,5.37-8.48,7.63l-1-0.62
			c0.82-1.54,1.9-4.19,3.24-7.94H82.55c0.15,2.42-0.18,4.6-1,6.55c-0.72,1.64-1.7,2.88-2.93,3.7
			C77.54,182.2,76.46,182.51,75.38,182.46z M74.77,222.6l-0.62-2.23h30.51v-12.33H82.47l-0.62-2.23h22.81v-10.56H92.03v2.54
			c0,0.26-0.44,0.59-1.31,1c-0.92,0.41-1.88,0.62-2.85,0.62h-0.69v-22.34l5.24,2.39h29.36l2.62-2.77l5.93,4.39
			c-0.62,0.72-1.59,1.18-2.93,1.39v14.33c-0.05,0.26-0.54,0.59-1.46,1c-1.03,0.41-1.93,0.62-2.7,0.62h-0.69v-3.16h-12.79v10.56
			h14.79l3.54-4.39c2.21,1.8,4.39,3.6,6.55,5.39c-0.21,0.82-0.9,1.23-2.08,1.23h-22.81v12.33h21.34l3.7-4.7
			c2.31,1.9,4.6,3.83,6.86,5.78c-0.15,0.77-0.85,1.16-2.08,1.16h-64.8V222.6z M95.11,168.47c-0.98,0.69-2.11,0.58-3.39-0.35
			c-0.26-1.9-1.16-3.98-2.7-6.24c-1.44-2.05-3.06-3.8-4.85-5.24l0.85-0.69c3.65,1.03,6.5,2.47,8.55,4.32
			c1.64,1.54,2.57,3.16,2.77,4.85C96.5,166.66,96.08,167.78,95.11,168.47z M92.03,192.94h30.51v-11.17H92.03V192.94z"/>
	</g>
	<g>
		<path class="st2" d="M170.94,178.59c-0.12-0.95-0.34-1.57-0.67-1.86s-0.95-0.45-1.85-0.46l-3.62-0.02v5.16
			c0,1.42,0.79,2.13,2.37,2.13v0.37h-6.44v-0.37c0.86,0,1.46-0.17,1.8-0.5c0.33-0.33,0.5-0.97,0.5-1.9v-9.94
			c0-0.7-0.13-1.22-0.4-1.54s-0.9-0.53-1.9-0.61v-0.37h12.21l0.07,3.3h-0.51c-0.18-1.04-0.5-1.75-0.97-2.11s-1.33-0.54-2.58-0.54
			h-3.43c-0.49,0-0.73,0.26-0.73,0.78v5.46h3.62c0.93,0,1.55-0.16,1.87-0.48c0.32-0.32,0.53-0.93,0.65-1.85h0.54v5.34L170.94,178.59
			L170.94,178.59z"/>
		<path class="st2" d="M191.89,169.05c-0.91,0.1-1.52,0.33-1.82,0.7s-0.45,1.14-0.45,2.31v6c0,2.32-0.49,3.92-1.47,4.82
			c-0.98,0.9-2.43,1.35-4.36,1.35c-1.81,0-3.17-0.44-4.08-1.32s-1.36-2.39-1.36-4.53v-7.17c0-0.83-0.17-1.4-0.5-1.7
			s-0.95-0.45-1.85-0.45v-0.37h6.51v0.37c-0.93,0-1.56,0.15-1.9,0.44c-0.33,0.29-0.5,0.87-0.5,1.71v7.34c0,3.25,1.44,4.87,4.31,4.87
			c2.95,0,4.43-1.71,4.43-5.14v-6.22c0-1.17-0.17-1.97-0.51-2.39s-0.94-0.62-1.79-0.62v-0.37h5.33v0.37H191.89z"/>
		<path class="st2" d="M205.2,178.59c-0.12-0.95-0.34-1.57-0.67-1.86s-0.95-0.45-1.85-0.46l-3.62-0.02v5.16
			c0,1.42,0.79,2.13,2.37,2.13v0.37H195v-0.37c0.86,0,1.46-0.17,1.8-0.5c0.33-0.33,0.5-0.97,0.5-1.9v-9.94c0-0.7-0.13-1.22-0.4-1.54
			s-0.9-0.53-1.9-0.61v-0.37h12.21l0.07,3.3h-0.51c-0.18-1.04-0.5-1.75-0.97-2.11s-1.33-0.54-2.58-0.54h-3.43
			c-0.49,0-0.73,0.26-0.73,0.78v5.46h3.62c0.93,0,1.55-0.16,1.87-0.48c0.32-0.32,0.53-0.93,0.65-1.85h0.54v5.34L205.2,178.59
			L205.2,178.59z"/>
		<path class="st2" d="M226.15,169.05c-0.91,0.1-1.52,0.33-1.82,0.7s-0.45,1.14-0.45,2.31v6c0,2.32-0.49,3.92-1.47,4.82
			c-0.98,0.9-2.43,1.35-4.36,1.35c-1.81,0-3.17-0.44-4.08-1.32s-1.36-2.39-1.36-4.53v-7.17c0-0.83-0.17-1.4-0.5-1.7
			s-0.95-0.45-1.85-0.45v-0.37h6.51v0.37c-0.93,0-1.56,0.15-1.9,0.44c-0.33,0.29-0.5,0.87-0.5,1.71v7.34c0,3.25,1.44,4.87,4.31,4.87
			c2.95,0,4.43-1.71,4.43-5.14v-6.22c0-1.17-0.17-1.97-0.51-2.39s-0.94-0.62-1.79-0.62v-0.37h5.33v0.37H226.15z"/>
		<path class="st2" d="M170.86,216.08h-6.73v-0.37c1.01,0,1.67-0.17,1.98-0.51s0.47-0.97,0.47-1.88v-11.8h-1.25
			c-1.27,0-2.19,0.23-2.77,0.69s-0.98,1.31-1.22,2.57h-0.49l0.15-3.92h12.95l0.15,3.92h-0.49c-0.23-1.26-0.63-2.11-1.21-2.57
			s-1.51-0.69-2.8-0.69h-1.25v12.07c0,0.8,0.18,1.35,0.54,1.66s1.02,0.46,1.98,0.46L170.86,216.08L170.86,216.08z"/>
		<path class="st2" d="M191.47,216.08h-5.85v-0.37c1.24,0,1.86-0.34,1.86-1.03c0-0.26-0.15-0.74-0.44-1.44l-0.98-2.28h-6.49
			l-1.1,2.84c-0.13,0.34-0.2,0.64-0.2,0.88c0,0.69,0.62,1.03,1.86,1.03v0.37h-4.55v-0.37c0.38,0,0.75-0.18,1.14-0.55
			s0.96-1.46,1.73-3.29l4.77-11.28h0.29l5.6,13.04c0.6,1.39,1.39,2.08,2.35,2.08v0.37H191.47z M185.79,210.31l-3.01-7.07l-2.91,7.07
			H185.79z"/>
		<path class="st2" d="M208.82,201.23c-1.06,0.11-1.71,0.4-1.96,0.86c-0.24,0.46-0.37,1.17-0.37,2.15v12.09h-0.24l-10.28-12.85
			l-0.05,9.23c0,1.17,0.17,1.97,0.5,2.39s0.94,0.62,1.82,0.62v0.37h-5.41v-0.37c0.9,0,1.52-0.2,1.86-0.6
			c0.34-0.4,0.51-1.2,0.51-2.41v-10.18c-0.69-0.87-1.48-1.3-2.37-1.3v-0.37h3.45l9.45,11.9l0.05-8.52c0-1.09-0.15-1.87-0.46-2.33
			c-0.31-0.46-0.95-0.69-1.91-0.69v-0.37h5.41L208.82,201.23L208.82,201.23z"/>
		<path class="st2" d="M226.2,208.25c-0.8,0.08-1.31,0.27-1.53,0.55c-0.22,0.29-0.33,0.73-0.33,1.33v4.63
			c0,0.23-0.62,0.56-1.87,0.99c-1.25,0.43-2.4,0.65-3.46,0.65c-2.64,0-4.7-0.72-6.17-2.15c-1.47-1.44-2.2-3.43-2.2-6
			c0-2.1,0.74-3.92,2.23-5.43c1.48-1.52,3.36-2.28,5.63-2.28c0.75,0,1.46,0.1,2.13,0.29c0.67,0.2,1.35,0.39,2.03,0.59
			c0.54,0,0.89-0.29,1.05-0.88h0.49l0.2,4.85h-0.44c-1.03-2.79-2.74-4.19-5.14-4.19c-1.7,0-3.16,0.67-4.39,2.01
			s-1.85,3.17-1.85,5.51c0,2.07,0.64,3.76,1.93,5.07c1.29,1.31,2.85,1.96,4.7,1.96c0.8,0,1.56-0.17,2.29-0.5s1.09-0.71,1.09-1.11
			v-3.72c0-0.9-0.16-1.48-0.49-1.75s-0.91-0.4-1.76-0.4v-0.32h5.87L226.2,208.25L226.2,208.25z"/>
	</g>
</g>
</svg>
