<?xml version="1.0" encoding="utf-8"?>
<!-- Generator: Adobe Illustrator 27.0.1, SVG Export Plug-In . SVG Version: 6.00 Build 0)  -->
<svg version="1.1" id="Layer_1" xmlns="http://www.w3.org/2000/svg" xmlns:xlink="http://www.w3.org/1999/xlink" x="0px" y="0px"
	 viewBox="0 0 241.28 314.29" style="enable-background:new 0 0 241.28 314.29;" xml:space="preserve">
<style type="text/css">
	.st0{fill:#F68F7B;}
	.st1{fill:#FFFFFF;}
</style>
<g id="pink-v2">
	<circle class="st0" cx="119.29" cy="107.84" r="91.97"/>
	<g>
		<path d="M38.31,258.76l-0.69-0.54c1.22-2.74,1.83-7.07,1.83-12.98v-6.89l4.26,0.45c-0.1,0.69-0.66,1.11-1.68,1.24v5.25
			C42.03,251.37,40.79,255.86,38.31,258.76z M45.4,263.62v-29.68h-7.28l-0.35-1.44h12.38l2.23-2.92c1.35,1.19,2.71,2.38,4.06,3.57
			c-0.1,0.53-0.53,0.79-1.29,0.79h-6.84v28.68c0,0.17-0.23,0.36-0.69,0.59c-0.53,0.26-1.12,0.4-1.78,0.4H45.4V263.62z M39.4,223.64
			l-0.4-1.49h9.56l2.28-2.77c0.5,0.4,1.01,0.78,1.54,1.14c1.16,0.92,2.08,1.7,2.77,2.33c-0.13,0.53-0.58,0.79-1.34,0.79L39.4,223.64
			L39.4,223.64z M51.39,256.24v-17.98l4.26,0.45c-0.1,0.69-0.63,1.11-1.58,1.24v15.21c0,0.2-0.25,0.43-0.74,0.69
			c-0.5,0.26-0.97,0.4-1.44,0.4h-0.5V256.24z M56.89,223.64l-0.4-1.49h20.06l2.28-2.87c0.5,0.4,1.01,0.79,1.54,1.19
			c1.16,0.96,2.05,1.75,2.67,2.38c-0.1,0.53-0.51,0.79-1.24,0.79H56.89z M57.63,263.77v-21.85l3.57,1.54h16.55l1.54-1.93l3.57,2.77
			c-0.33,0.43-0.94,0.71-1.83,0.84v17.14c0,0.13-0.26,0.31-0.79,0.54c-0.59,0.26-1.19,0.4-1.78,0.4h-0.5v-2.23H60.61v1.78
			c0,0.17-0.23,0.36-0.69,0.59c-0.53,0.26-1.14,0.4-1.83,0.4h-0.46V263.77z M60.21,240.53v-13.62l3.57,1.54h11.25l1.54-1.83
			l3.42,2.63c-0.36,0.4-0.92,0.66-1.68,0.79v9.21c0,0.13-0.26,0.31-0.79,0.54c-0.59,0.26-1.21,0.4-1.83,0.4h-0.54v-2.03H63.18v1.44
			c0,0.2-0.21,0.4-0.64,0.59c-0.53,0.23-1.16,0.35-1.88,0.35L60.21,240.53L60.21,240.53z M60.61,251.28h7.04v-6.39h-7.04V251.28z
			 M60.61,259.56h7.04v-6.79h-7.04V259.56z M63.18,236.72h11.94v-6.84H63.18V236.72z M70.61,251.28h7.33v-6.39h-7.33V251.28z
			 M70.61,259.56h7.33v-6.79h-7.33V259.56z"/>
		<path d="M99.25,258.76l-0.69-0.54c1.22-2.74,1.83-7.07,1.83-12.98v-6.89l4.26,0.45c-0.1,0.69-0.66,1.11-1.68,1.24v5.25
			C102.96,251.37,101.72,255.86,99.25,258.76z M106.33,263.62v-29.68h-7.28l-0.35-1.44h12.38l2.23-2.92
			c1.35,1.19,2.71,2.38,4.06,3.57c-0.1,0.53-0.53,0.79-1.29,0.79h-6.84v28.68c0,0.17-0.23,0.36-0.69,0.59
			c-0.53,0.26-1.12,0.4-1.78,0.4h-0.44V263.62z M100.34,223.64l-0.4-1.49h9.56l2.28-2.77c0.5,0.4,1.01,0.78,1.54,1.14
			c1.16,0.92,2.08,1.7,2.77,2.33c-0.13,0.53-0.58,0.79-1.34,0.79L100.34,223.64L100.34,223.64z M112.33,256.24v-17.98l4.26,0.45
			c-0.1,0.69-0.63,1.11-1.58,1.24v15.21c0,0.2-0.25,0.43-0.74,0.69c-0.5,0.26-0.97,0.4-1.44,0.4h-0.5V256.24z M117.83,223.64
			l-0.4-1.49h20.06l2.28-2.87c0.5,0.4,1.01,0.79,1.54,1.19c1.16,0.96,2.05,1.75,2.67,2.38c-0.1,0.53-0.51,0.79-1.24,0.79H117.83z
			 M118.57,263.77v-21.85l3.57,1.54h16.55l1.54-1.93l3.57,2.77c-0.33,0.43-0.94,0.71-1.83,0.84v17.14c0,0.13-0.26,0.31-0.79,0.54
			c-0.59,0.26-1.19,0.4-1.78,0.4h-0.5v-2.23h-17.34v1.78c0,0.17-0.23,0.36-0.69,0.59c-0.53,0.26-1.14,0.4-1.83,0.4h-0.47V263.77z
			 M121.15,240.53v-13.62l3.57,1.54h11.25l1.54-1.83l3.42,2.63c-0.36,0.4-0.92,0.66-1.68,0.79v9.21c0,0.13-0.26,0.31-0.79,0.54
			c-0.59,0.26-1.21,0.4-1.83,0.4h-0.54v-2.03h-11.94v1.44c0,0.2-0.21,0.4-0.64,0.59c-0.53,0.23-1.16,0.35-1.88,0.35L121.15,240.53
			L121.15,240.53z M121.54,251.28h7.04v-6.39h-7.04V251.28z M121.54,259.56h7.04v-6.79h-7.04V259.56z M124.12,236.72h11.94v-6.84
			h-11.94C124.12,229.88,124.12,236.72,124.12,236.72z M131.55,251.28h7.33v-6.39h-7.33V251.28z M131.55,259.56h7.33v-6.79h-7.33
			V259.56z"/>
		<path d="M157.76,236.62c-0.73-0.03-1.22-0.35-1.49-0.94c-0.2-0.5-0.17-0.99,0.1-1.49c0.26-0.46,0.66-0.84,1.19-1.14
			c1.02-0.56,1.85-1.52,2.48-2.87c0.66-1.39,0.89-2.87,0.69-4.46l0.84-0.05c0.26,0.73,0.48,1.52,0.64,2.38h14.32v-9.71l5.05,0.54
			c-0.1,0.76-0.68,1.21-1.73,1.34v7.83h4.9c2.05-3.04,3.67-5.93,4.86-8.67l5.05,1.88c-0.3,0.63-0.96,0.88-1.98,0.74
			c-1.75,2.08-3.88,4.1-6.39,6.04h8.62l2.13-2.23l3.91,3.76c-0.3,0.23-0.94,0.38-1.93,0.45c-1.45,1.82-3.27,3.45-5.45,4.9l-0.64-0.4
			c0.53-0.99,1.22-2.69,2.08-5.1h-32.65c0.1,1.55-0.12,2.96-0.64,4.21c-0.46,1.06-1.09,1.85-1.88,2.38
			C159.14,236.45,158.45,236.65,157.76,236.62z M157.36,262.43l-0.4-1.44h19.62v-7.93h-14.27l-0.4-1.44h14.66v-6.79h-8.12v1.63
			c0,0.17-0.28,0.38-0.84,0.64c-0.59,0.26-1.21,0.4-1.83,0.4h-0.45v-14.37l3.37,1.54h18.88l1.68-1.78l3.81,2.82
			c-0.4,0.46-1.02,0.76-1.88,0.89v9.21c-0.03,0.17-0.35,0.38-0.94,0.64c-0.66,0.26-1.24,0.4-1.73,0.4h-0.45v-2.03h-8.22v6.79h9.51
			l2.28-2.82c1.42,1.16,2.82,2.31,4.21,3.47c-0.13,0.53-0.58,0.79-1.34,0.79h-14.66v7.93h13.72l2.38-3.02
			c1.49,1.22,2.96,2.46,4.41,3.71c-0.1,0.5-0.54,0.74-1.34,0.74h-41.66V262.43z M170.44,227.63c-0.63,0.45-1.35,0.37-2.18-0.22
			c-0.17-1.22-0.74-2.56-1.73-4.01c-0.92-1.32-1.97-2.44-3.12-3.37l0.54-0.45c2.34,0.66,4.18,1.58,5.5,2.77
			c1.06,0.99,1.65,2.03,1.78,3.12C171.33,226.46,171.07,227.18,170.44,227.63z M168.46,243.36h19.62v-7.18h-19.62V243.36z"/>
	</g>
	<g>
		<path d="M47.99,289.63c-0.11-0.88-0.32-1.46-0.63-1.73s-0.88-0.42-1.72-0.43l-3.37-0.02v4.81c0,1.32,0.74,1.98,2.21,1.98v0.34h-6
			v-0.34c0.81,0,1.36-0.16,1.68-0.47c0.31-0.31,0.47-0.9,0.47-1.77v-9.26c0-0.65-0.12-1.13-0.38-1.44c-0.25-0.3-0.84-0.49-1.77-0.57
			v-0.34h11.38l0.07,3.08h-0.48c-0.17-0.97-0.47-1.63-0.9-1.96s-1.23-0.5-2.4-0.5h-3.19c-0.46,0-0.68,0.24-0.68,0.73v5.08h3.37
			c0.87,0,1.45-0.15,1.74-0.44c0.3-0.3,0.5-0.87,0.6-1.72h0.5v4.97H47.99z"/>
		<path d="M70.7,280.74c-0.85,0.09-1.42,0.31-1.7,0.65s-0.42,1.06-0.42,2.15v5.59c0,2.16-0.46,3.66-1.37,4.49
			c-0.91,0.84-2.26,1.25-4.06,1.25c-1.69,0-2.95-0.41-3.8-1.23c-0.84-0.82-1.26-2.23-1.26-4.22v-6.68c0-0.77-0.16-1.3-0.47-1.58
			s-0.89-0.42-1.72-0.42v-0.34h6.06v0.34c-0.87,0-1.46,0.14-1.77,0.41s-0.47,0.81-0.47,1.6v6.84c0,3.02,1.34,4.54,4.01,4.54
			c2.75,0,4.13-1.6,4.13-4.79v-5.79c0-1.09-0.16-1.83-0.48-2.22s-0.87-0.58-1.66-0.58v-0.34h4.97v0.33H70.7z"/>
		<path d="M86.29,289.63c-0.11-0.88-0.32-1.46-0.63-1.73s-0.88-0.42-1.72-0.43l-3.37-0.02v4.81c0,1.32,0.74,1.98,2.21,1.98v0.34h-6
			v-0.34c0.81,0,1.36-0.16,1.68-0.47c0.31-0.31,0.47-0.9,0.47-1.77v-9.26c0-0.65-0.12-1.13-0.38-1.44c-0.25-0.3-0.84-0.49-1.77-0.57
			v-0.34h11.38l0.07,3.08h-0.48c-0.17-0.97-0.47-1.63-0.9-1.96s-1.23-0.5-2.4-0.5h-3.19c-0.46,0-0.68,0.24-0.68,0.73v5.08h3.37
			c0.87,0,1.45-0.15,1.74-0.44c0.3-0.3,0.5-0.87,0.6-1.72h0.5v4.97H86.29z"/>
		<path d="M108.99,280.74c-0.85,0.09-1.42,0.31-1.7,0.65s-0.42,1.06-0.42,2.15v5.59c0,2.16-0.46,3.66-1.37,4.49
			c-0.91,0.84-2.26,1.25-4.06,1.25c-1.69,0-2.95-0.41-3.8-1.23c-0.84-0.82-1.26-2.23-1.26-4.22v-6.68c0-0.77-0.16-1.3-0.47-1.58
			s-0.89-0.42-1.72-0.42v-0.34h6.06v0.34c-0.87,0-1.46,0.14-1.77,0.41s-0.47,0.81-0.47,1.6v6.84c0,3.02,1.34,4.54,4.01,4.54
			c2.75,0,4.13-1.6,4.13-4.79v-5.79c0-1.09-0.16-1.83-0.48-2.22s-0.87-0.58-1.66-0.58v-0.34h4.97v0.33H108.99z"/>
		<path d="M137.61,294.58h-6.27v-0.34c0.94,0,1.56-0.16,1.85-0.48c0.29-0.32,0.43-0.9,0.43-1.76v-10.99h-1.16
			c-1.19,0-2.04,0.21-2.58,0.64c-0.53,0.43-0.91,1.22-1.14,2.39h-0.46l0.14-3.65h12.06l0.14,3.65h-0.46
			c-0.21-1.17-0.59-1.97-1.13-2.39c-0.54-0.43-1.41-0.64-2.61-0.64h-1.16v11.24c0,0.75,0.17,1.26,0.5,1.55
			c0.33,0.29,0.95,0.43,1.85,0.43L137.61,294.58L137.61,294.58z"/>
		<path d="M160.45,294.58H155v-0.34c1.16,0,1.73-0.32,1.73-0.96c0-0.24-0.14-0.69-0.41-1.34l-0.91-2.12h-6.04l-1.03,2.64
			c-0.12,0.32-0.18,0.59-0.18,0.82c0,0.64,0.58,0.96,1.73,0.96v0.34h-4.24v-0.34c0.35,0,0.7-0.17,1.06-0.51s0.89-1.36,1.61-3.07
			l4.45-10.51h0.27l5.22,12.15c0.56,1.29,1.29,1.94,2.19,1.94V294.58z M155.16,289.2l-2.8-6.59l-2.71,6.59H155.16z"/>
		<path d="M180.26,280.74c-0.99,0.11-1.6,0.37-1.82,0.8c-0.23,0.43-0.34,1.09-0.34,2.01v11.26h-0.23l-9.58-11.97l-0.05,8.59
			c0,1.09,0.16,1.84,0.47,2.22c0.31,0.39,0.88,0.58,1.7,0.58v0.34h-5.04v-0.34c0.84,0,1.41-0.19,1.73-0.56s0.48-1.12,0.48-2.25
			v-9.48c-0.64-0.81-1.38-1.21-2.21-1.21v-0.34h3.21l8.8,11.08l0.05-7.93c0-1.02-0.14-1.74-0.43-2.17
			c-0.29-0.43-0.88-0.64-1.78-0.64v-0.34h5.04V280.74z"/>
		<path d="M200.09,287.28c-0.74,0.08-1.22,0.25-1.42,0.51c-0.21,0.27-0.31,0.68-0.31,1.24v4.31c0,0.21-0.58,0.52-1.74,0.92
			c-1.16,0.4-2.24,0.6-3.23,0.6c-2.46,0-4.38-0.67-5.75-2.01s-2.05-3.2-2.05-5.58c0-1.96,0.69-3.65,2.08-5.06
			c1.38-1.41,3.13-2.12,5.24-2.12c0.7,0,1.36,0.09,1.98,0.27s1.25,0.37,1.89,0.55c0.5,0,0.83-0.27,0.98-0.82h0.46l0.18,4.51h-0.41
			c-0.96-2.6-2.55-3.9-4.79-3.9c-1.58,0-2.94,0.62-4.09,1.87s-1.72,2.96-1.72,5.13c0,1.93,0.6,3.5,1.8,4.72s2.66,1.82,4.38,1.82
			c0.74,0,1.46-0.16,2.13-0.47c0.68-0.31,1.01-0.66,1.01-1.04v-3.46c0-0.84-0.15-1.38-0.46-1.63c-0.3-0.25-0.85-0.38-1.64-0.38v-0.3
			h5.47L200.09,287.28L200.09,287.28z"/>
	</g>
	<path class="st1" d="M175.32,52.04c-15-14.93-34.94-23.16-56.16-23.16S78.01,37.1,63.01,52.04s-23.27,34.8-23.27,55.92
		c0,21.13,8.26,40.99,23.27,55.92c15,14.93,34.94,23.16,56.16,23.16s41.16-8.22,56.16-23.16s23.27-34.8,23.27-55.92
		C198.59,86.84,190.32,66.97,175.32,52.04z M172.45,54.92c0.79,0.78,1.55,1.58,2.29,2.39c-23.42-0.37-47.15-0.39-70.19-0.4
		c0.64-1.65,1.14-3.33,1.57-4.94c1.59-6,2.63-12.18,3.13-18.37c3.26-0.42,6.58-0.65,9.92-0.65
		C139.29,32.95,158.22,40.75,172.45,54.92z M65.88,54.92c10.86-10.81,24.45-17.91,39.22-20.67c-0.5,5.63-1.48,11.23-2.93,16.68
		c-1.01,3.81-2.44,8.07-5.38,10.74c-3.88,3.52-9.76,3.95-15.96,4.11L56.41,66.4C59.16,62.31,62.32,58.47,65.88,54.92z M46.61,87.62
		l11.51-0.15l0.22,34.61c0.06,8.84,0.11,17.98-2.35,26.51c-0.01,0.05-0.03,0.12-0.06,0.2c-7.88-12.05-12.11-26.11-12.11-40.82
		C43.81,100.98,44.77,94.16,46.61,87.62z M58.43,152.38c0.01-0.01,0.02-0.02,0.03-0.02c0.86-0.78,1.2-1.77,1.45-2.64
		c2.63-9.09,2.57-18.53,2.51-27.66L62.2,87.42l13.37-0.18c0.45,27.24,0.54,54.84,0.27,82.12c-3.52-2.47-6.85-5.26-9.95-8.35
		C63.16,158.29,60.67,155.4,58.43,152.38z M93.12,178.39L92.7,111.7c0-0.03-0.01-3.05,1.74-4.83c0.88-0.9,2.09-1.34,3.68-1.34
		c5.27,0,6.14,4.55,6.25,5.44c-0.05,1.85-0.56,20.54-0.56,31.16c0,2.19-0.5,3.6-1.49,4.2c-2.03,1.23-6.18-0.42-7.47-1.1l-0.95,1.8
		l-0.95,1.8c0.71,0.38,7.11,3.62,11.47,0.99c2.3-1.39,3.47-3.97,3.47-7.69c0-11.06,0.56-30.99,0.56-31.19v-0.12l-0.01-0.12
		c-0.3-3.19-2.84-9.23-10.32-9.23c-2.71,0-4.92,0.86-6.59,2.56c-2.96,3.01-2.9,7.56-2.9,7.73l0.4,65c-3.15-1.37-6.21-2.96-9.16-4.76
		c0.3-28.16,0.21-56.68-0.25-84.82l25.07-0.33c1.06,7.39,7.15,10.47,10.52,11.08l0.19,0.03l56.93-0.6c0.84,0.06,5.16,0.19,8.46-2.79
		c2.47-2.23,3.72-5.55,3.72-9.87c0-4.31-1.25-7.67-3.7-9.97c-3.34-3.13-7.74-3.09-8.45-3.06l-56.79-0.28h-0.07
		c-0.1,0.01-9.9,0.72-10.89,11.37l-56.74,0.75c1.56-4.51,3.55-8.86,5.95-13l27.1-0.68c6.99-0.18,13.68-0.7,18.59-5.16
		c1.21-1.09,2.2-2.35,3.03-3.7c24.65,0.01,50.8,0.02,75.85,0.46l0,0c10.14,12.43,15.3,26.96,16.03,43.06l-73.39,0.94
		c-3.7,0.08-10.79,2.49-11.09,11.06c-0.3,8.66-0.47,36.66-0.47,38.03c-0.03,0.69-0.13,5.22,2.84,8.41c1.9,2.04,4.56,3.07,7.91,3.07
		c7.3,0,35.49-0.48,47.47-0.69c-13.57,11.41-30.57,17.64-48.54,17.64C110.13,182.97,101.35,181.4,93.12,178.39z M108.61,84.56
		c0-8.13,6.14-9,7.1-9.09l56.76,0.28h0.07c0.03,0,3.23-0.15,5.49,1.97c1.6,1.5,2.42,3.86,2.42,7c0,3.1-0.79,5.4-2.35,6.82
		c-2.23,2.04-5.46,1.77-5.48,1.77l-0.11-0.01l-56.72,0.59C114.67,93.62,108.61,91.85,108.61,84.56z M113.54,154.74v-0.13
		c0-0.21,0.09-15.28,0.25-26.96l59.65,0.33c-0.16,0.48,0.17-0.48,0,0c-5.54,15.47-15.72,27.88-29.02,33.62l0,0
		c-10.35,0.16-20.24,0.35-24.19,0.35c-2.16,0-3.82-0.59-4.92-1.76C113.36,158.12,113.54,154.77,113.54,154.74z M174.68,123.92
		l-60.82-0.34c0.05-2.82,0.1-5.24,0.16-6.93c0.24-6.72,6.41-7.11,7.09-7.13l56.16-0.72C177.12,111.25,176.57,117,174.68,123.92z
		 M172.45,161c-0.06,0.06-0.12,0.12-0.19,0.18c-2.47,0.04-10.27,0.18-19.19,0.33c10.76-6.69,18.9-17.21,23.75-30.84
		c3.59-10.07,4.37-18.83,4.53-21.92l13.15-0.17C194.35,128.38,186.53,146.98,172.45,161z"/>
</g>
</svg>
