<?xml version="1.0" encoding="utf-8"?>
<!-- Generator: Adobe Illustrator 27.0.1, SVG Export Plug-In . SVG Version: 6.00 Build 0)  -->
<svg version="1.1" id="Layer_1" xmlns="http://www.w3.org/2000/svg" xmlns:xlink="http://www.w3.org/1999/xlink" x="0px" y="0px"
	 viewBox="0 0 468.32 186.25" style="enable-background:new 0 0 468.32 186.25;" xml:space="preserve">
<style type="text/css">
	.st0{fill:#006896;}
	.st1{fill:#FFFFFF;}
	.st2{fill:#000000;}
</style>
<g id="blue">
	<circle class="st0" cx="96.28" cy="93.66" r="60.18"/>
	<path class="st1" d="M132.97,57.12c-9.8-9.76-22.83-15.13-36.69-15.13s-26.89,5.37-36.69,15.13s-15.2,22.73-15.2,36.54
		c0,13.8,5.4,26.78,15.2,36.54c9.8,9.76,22.83,15.13,36.69,15.13s26.89-5.37,36.69-15.13s15.2-22.73,15.2-36.54
		S142.77,66.88,132.97,57.12z M131.09,59.01c0.51,0.51,1.01,1.03,1.5,1.56c-15.3-0.24-30.81-0.26-45.86-0.26
		c0.42-1.08,0.74-2.18,1.02-3.23c1.04-3.92,1.72-7.96,2.04-12c2.13-0.28,4.3-0.42,6.48-0.42C109.43,44.65,121.79,49.75,131.09,59.01
		z M61.47,59.01c7.09-7.06,15.97-11.7,25.63-13.51c-0.33,3.68-0.97,7.33-1.91,10.9c-0.66,2.49-1.59,5.27-3.51,7.02
		c-2.53,2.3-6.38,2.58-10.43,2.68L55.3,66.5C57.07,63.83,59.14,61.32,61.47,59.01z M48.87,80.36l7.52-0.1l0.14,22.61
		c0.04,5.78,0.07,11.75-1.53,17.32c-0.01,0.03-0.02,0.08-0.04,0.13c-5.15-7.87-7.91-17.06-7.91-26.67
		C47.05,89.1,47.67,84.64,48.87,80.36z M56.6,122.67c0.01-0.01,0.01-0.01,0.02-0.02c0.56-0.51,0.78-1.16,0.95-1.72
		c1.72-5.94,1.68-12.11,1.64-18.07l-0.14-22.63l8.73-0.12c0.29,17.8,0.35,35.83,0.18,53.65c-2.3-1.61-4.47-3.44-6.5-5.46
		C59.69,126.54,58.06,124.65,56.6,122.67z M79.26,139.67L78.99,96.1c0-0.02,0-1.99,1.13-3.15c0.58-0.59,1.36-0.87,2.4-0.87
		c3.44,0,4.01,2.97,4.09,3.55c-0.03,1.21-0.37,13.42-0.37,20.36c0,1.43-0.33,2.35-0.97,2.74c-1.33,0.8-4.04-0.28-4.88-0.72
		l-0.62,1.18l-0.62,1.18c0.47,0.25,4.65,2.36,7.49,0.65c1.5-0.91,2.26-2.6,2.26-5.02c0-7.23,0.36-20.25,0.37-20.38v-0.08l-0.01-0.08
		c-0.19-2.09-1.85-6.03-6.74-6.03c-1.77,0-3.22,0.56-4.3,1.67c-1.93,1.97-1.9,4.94-1.9,5.05l0.26,42.47
		c-2.06-0.89-4.06-1.93-5.98-3.11c0.19-18.4,0.14-37.03-0.16-55.42l16.38-0.22c0.69,4.83,4.67,6.84,6.87,7.24l0.12,0.02l37.2-0.39
		c0.55,0.04,3.37,0.13,5.52-1.82c1.61-1.46,2.43-3.63,2.43-6.45s-0.81-5.01-2.42-6.51c-2.18-2.05-5.06-2.02-5.52-2l-37.1-0.18h-0.04
		c-0.07,0-6.47,0.47-7.12,7.43L49.69,77.7c1.02-2.95,2.32-5.79,3.89-8.49l17.71-0.45c4.57-0.12,8.94-0.46,12.15-3.37
		c0.79-0.71,1.43-1.54,1.98-2.42c16.1,0,33.19,0.01,49.55,0.3l0,0c6.62,8.12,9.99,17.61,10.47,28.14l-47.94,0.6
		c-2.42,0.05-7.05,1.63-7.25,7.23c-0.2,5.66-0.31,23.95-0.31,24.85c-0.02,0.45-0.09,3.41,1.86,5.49c1.24,1.33,2.98,2.01,5.17,2.01
		c4.77,0,23.19-0.31,31.02-0.45c-8.86,7.46-19.97,11.52-31.71,11.52C90.38,142.66,84.64,141.63,79.26,139.67z M89.39,78.37
		c0-5.31,4.01-5.88,4.64-5.94l37.08,0.18h0.05c0.02,0,2.11-0.1,3.59,1.28c1.05,0.98,1.58,2.52,1.58,4.57c0,2.03-0.52,3.53-1.54,4.46
		c-1.46,1.33-3.56,1.16-3.58,1.16l-0.07-0.01l-37.06,0.39C93.34,84.29,89.39,83.13,89.39,78.37z M92.61,124.22v-0.09
		c0-0.14,0.06-9.98,0.16-17.61l38.97,0.22c-0.1,0.31,0.11-0.31,0,0c-3.62,10.11-10.27,18.21-18.96,21.96l0,0
		c-6.76,0.11-13.22,0.23-15.81,0.23c-1.41,0-2.49-0.39-3.21-1.15C92.49,126.42,92.61,124.24,92.61,124.22z M132.55,104.08
		l-39.74-0.22c0.03-1.84,0.07-3.42,0.11-4.52c0.15-4.39,4.19-4.65,4.63-4.66l36.69-0.47C134.14,95.81,133.79,99.56,132.55,104.08z
		 M131.09,128.31c-0.04,0.04-0.08,0.08-0.12,0.12c-1.61,0.03-6.71,0.12-12.54,0.22c7.03-4.37,12.34-11.25,15.52-20.15
		c2.34-6.58,2.85-12.31,2.96-14.32l8.59-0.11C145.4,107,140.29,119.15,131.09,128.31z"/>
	<g class="str1">
		<path d="M183.22,97.17l-0.98-0.77c1.73-3.88,2.59-10,2.59-18.36V68.3l6.03,0.63c-0.14,0.98-0.94,1.57-2.38,1.75v7.43
			C188.47,86.71,186.72,93.06,183.22,97.17z M193.24,104.04V62.07h-10.3l-0.49-2.03h17.52l3.15-4.13c1.92,1.68,3.83,3.36,5.75,5.04
			c-0.14,0.75-0.75,1.12-1.82,1.12h-9.67v40.57c0,0.23-0.33,0.51-0.98,0.84c-0.75,0.37-1.59,0.56-2.52,0.56
			C193.88,104.04,193.24,104.04,193.24,104.04z M184.76,47.49l-0.56-2.1h13.52l3.22-3.92c0.7,0.56,1.42,1.1,2.17,1.61
			c1.63,1.31,2.94,2.41,3.92,3.29c-0.19,0.75-0.82,1.12-1.89,1.12H184.76z M201.72,93.6V68.16l6.03,0.63
			c-0.14,0.98-0.89,1.57-2.24,1.75v21.51c0,0.28-0.35,0.61-1.05,0.98s-1.38,0.56-2.03,0.56L201.72,93.6L201.72,93.6z M209.5,47.49
			l-0.56-2.1h28.38l3.22-4.06c0.7,0.56,1.42,1.12,2.17,1.68c1.63,1.36,2.9,2.48,3.78,3.36c-0.14,0.75-0.72,1.12-1.75,1.12H209.5z
			 M210.55,104.25v-30.9l5.04,2.17h23.4l2.17-2.73l5.04,3.92c-0.47,0.61-1.33,1-2.59,1.19v24.24c0,0.19-0.37,0.44-1.12,0.77
			c-0.84,0.37-1.68,0.56-2.52,0.56h-0.7v-3.15h-24.52v2.52c0,0.23-0.33,0.51-0.98,0.84c-0.75,0.37-1.61,0.56-2.59,0.56h-0.63V104.25
			z M214.19,71.38V52.12l5.04,2.17h15.91l2.17-2.59l4.83,3.71c-0.51,0.56-1.31,0.93-2.38,1.12v13.03c0,0.19-0.37,0.45-1.12,0.77
			c-0.84,0.37-1.71,0.56-2.59,0.56h-0.77v-2.87h-16.89v2.03c0,0.28-0.3,0.56-0.91,0.84c-0.75,0.33-1.64,0.49-2.66,0.49L214.19,71.38
			L214.19,71.38z M214.75,86.59h9.95v-9.04h-9.95V86.59z M214.75,98.29h9.95v-9.6h-9.95V98.29z M218.39,65.99h16.89v-9.67h-16.89
			V65.99z M228.9,86.59h10.37v-9.04H228.9V86.59z M228.9,98.29h10.37v-9.6H228.9V98.29z"/>
		<path d="M269.4,97.17l-0.98-0.77c1.73-3.88,2.59-10,2.59-18.36V68.3l6.03,0.63c-0.14,0.98-0.94,1.57-2.38,1.75v7.43
			C274.66,86.71,272.91,93.06,269.4,97.17z M279.42,104.04V62.07h-10.3l-0.49-2.03h17.52l3.15-4.13c1.92,1.68,3.83,3.36,5.75,5.04
			c-0.14,0.75-0.75,1.12-1.82,1.12h-9.67v40.57c0,0.23-0.33,0.51-0.98,0.84c-0.75,0.37-1.59,0.56-2.52,0.56
			C280.06,104.04,279.42,104.04,279.42,104.04z M270.94,47.49l-0.56-2.1h13.52l3.22-3.92c0.7,0.56,1.42,1.1,2.17,1.61
			c1.63,1.31,2.94,2.41,3.92,3.29c-0.19,0.75-0.82,1.12-1.89,1.12H270.94z M287.9,93.6V68.16l6.03,0.63
			c-0.14,0.98-0.89,1.57-2.24,1.75v21.51c0,0.28-0.35,0.61-1.05,0.98c-0.7,0.37-1.38,0.56-2.03,0.56L287.9,93.6L287.9,93.6z
			 M295.68,47.49l-0.56-2.1h28.38l3.22-4.06c0.7,0.56,1.42,1.12,2.17,1.68c1.63,1.36,2.9,2.48,3.78,3.36
			c-0.14,0.75-0.72,1.12-1.75,1.12H295.68z M296.73,104.25v-30.9l5.04,2.17h23.4l2.17-2.73l5.04,3.92c-0.47,0.61-1.33,1-2.59,1.19
			v24.24c0,0.19-0.37,0.44-1.12,0.77c-0.84,0.37-1.68,0.56-2.52,0.56h-0.7v-3.15h-24.52v2.52c0,0.23-0.33,0.51-0.98,0.84
			c-0.75,0.37-1.61,0.56-2.59,0.56h-0.63V104.25z M300.37,71.38V52.12l5.04,2.17h15.91l2.17-2.59l4.83,3.71
			c-0.51,0.56-1.31,0.93-2.38,1.12v13.03c0,0.19-0.37,0.45-1.12,0.77c-0.84,0.37-1.71,0.56-2.59,0.56h-0.77v-2.87h-16.89v2.03
			c0,0.28-0.3,0.56-0.91,0.84c-0.75,0.33-1.64,0.49-2.66,0.49L300.37,71.38L300.37,71.38z M300.93,86.59h9.95v-9.04h-9.95V86.59z
			 M300.93,98.29h9.95v-9.6h-9.95V98.29z M304.58,65.99h16.89v-9.67h-16.89L304.58,65.99L304.58,65.99z M315.09,86.59h10.37v-9.04
			h-10.37V86.59z M315.09,98.29h10.37v-9.6h-10.37V98.29z"/>
		<path d="M352.15,65.85c-1.03-0.05-1.73-0.49-2.1-1.33c-0.28-0.7-0.23-1.4,0.14-2.1c0.37-0.65,0.93-1.19,1.68-1.61
			c1.45-0.79,2.62-2.15,3.5-4.06c0.93-1.96,1.26-4.06,0.98-6.31l1.19-0.07c0.37,1.03,0.68,2.15,0.91,3.36h20.25V39.99l7.15,0.77
			c-0.14,1.08-0.96,1.71-2.45,1.89v11.07h6.94c2.9-4.3,5.18-8.38,6.87-12.26l7.15,2.66c-0.42,0.89-1.36,1.24-2.8,1.05
			c-2.48,2.94-5.49,5.79-9.04,8.55h12.19l3.01-3.15l5.54,5.33c-0.42,0.33-1.33,0.54-2.73,0.63c-2.06,2.57-4.62,4.88-7.71,6.94
			l-0.91-0.56c0.75-1.4,1.73-3.81,2.94-7.22h-46.17c0.14,2.2-0.16,4.18-0.91,5.96c-0.65,1.5-1.54,2.62-2.66,3.36
			C354.12,65.62,353.14,65.9,352.15,65.85z M351.59,102.35l-0.56-2.03h27.75V89.11H358.6l-0.56-2.03h20.74v-9.6h-11.49v2.31
			c0,0.23-0.4,0.54-1.19,0.91c-0.84,0.37-1.71,0.56-2.59,0.56h-0.63V60.94l4.76,2.17h26.7l2.38-2.52l5.4,3.99
			c-0.56,0.66-1.45,1.08-2.66,1.26v13.03c-0.05,0.23-0.49,0.54-1.33,0.91c-0.93,0.37-1.75,0.56-2.45,0.56h-0.63v-2.87H383.4v9.6
			h13.45l3.22-3.99c2.01,1.64,3.99,3.27,5.96,4.91c-0.19,0.75-0.82,1.12-1.89,1.12H383.4v11.21h19.41l3.36-4.27
			c2.1,1.73,4.18,3.48,6.24,5.25c-0.14,0.7-0.77,1.05-1.89,1.05L351.59,102.35L351.59,102.35z M370.09,53.13
			c-0.89,0.63-1.92,0.53-3.08-0.32c-0.23-1.73-1.05-3.62-2.45-5.67c-1.31-1.87-2.78-3.46-4.41-4.76l0.77-0.63
			c3.32,0.93,5.91,2.24,7.78,3.92c1.49,1.4,2.33,2.87,2.52,4.41C371.35,51.49,370.98,52.5,370.09,53.13z M367.29,75.38h27.75V65.22
			h-27.75V75.38z"/>
	</g>
	<g class="str1">
		<path d="M196.28,140.82c-0.15-1.25-0.45-2.06-0.89-2.45s-1.25-0.59-2.43-0.61l-4.77-0.03v6.8c0,1.87,1.04,2.81,3.13,2.81v0.48
			h-8.48v-0.48c1.14,0,1.93-0.22,2.37-0.66s0.66-1.27,0.66-2.5v-13.09c0-0.92-0.18-1.6-0.53-2.03s-1.19-0.7-2.5-0.81v-0.48h16.09
			l0.1,4.35h-0.68c-0.24-1.38-0.66-2.3-1.27-2.77s-1.75-0.71-3.4-0.71h-4.51c-0.64,0-0.97,0.34-0.97,1.03v7.19h4.77
			c1.23,0,2.05-0.21,2.47-0.63s0.7-1.23,0.85-2.43H197v7.03L196.28,140.82L196.28,140.82z"/>
		<path d="M228.39,128.25c-1.2,0.13-2,0.43-2.4,0.92c-0.4,0.48-0.6,1.5-0.6,3.05v7.9c0,3.05-0.65,5.17-1.93,6.35
			c-1.29,1.18-3.2,1.77-5.74,1.77c-2.39,0-4.18-0.58-5.37-1.74s-1.79-3.15-1.79-5.96v-9.45c0-1.1-0.22-1.84-0.66-2.24
			s-1.25-0.6-2.43-0.6v-0.48h8.58v0.48c-1.23,0-2.06,0.19-2.5,0.58s-0.66,1.14-0.66,2.26v9.67c0,4.28,1.89,6.42,5.67,6.42
			c3.89,0,5.84-2.26,5.84-6.77v-8.19c0-1.55-0.23-2.6-0.68-3.14c-0.45-0.55-1.24-0.82-2.35-0.82v-0.48h7.03v0.47H228.39z"/>
		<path d="M250.44,140.82c-0.15-1.25-0.45-2.06-0.89-2.45s-1.25-0.59-2.43-0.61l-4.77-0.03v6.8c0,1.87,1.04,2.81,3.13,2.81v0.48H237
			v-0.48c1.14,0,1.93-0.22,2.37-0.66s0.66-1.27,0.66-2.5v-13.09c0-0.92-0.18-1.6-0.53-2.03s-1.19-0.7-2.5-0.81v-0.48h16.09l0.1,4.35
			h-0.68c-0.24-1.38-0.66-2.3-1.27-2.77s-1.75-0.71-3.4-0.71h-4.51c-0.64,0-0.97,0.34-0.97,1.03v7.19h4.77
			c1.23,0,2.05-0.21,2.47-0.63s0.7-1.23,0.85-2.43h0.71v7.03L250.44,140.82L250.44,140.82z"/>
		<path d="M282.56,128.25c-1.2,0.13-2,0.43-2.4,0.92c-0.4,0.48-0.6,1.5-0.6,3.05v7.9c0,3.05-0.65,5.17-1.93,6.35
			c-1.29,1.18-3.2,1.77-5.74,1.77c-2.39,0-4.18-0.58-5.37-1.74s-1.79-3.15-1.79-5.96v-9.45c0-1.1-0.22-1.84-0.66-2.24
			s-1.25-0.6-2.43-0.6v-0.48h8.58v0.48c-1.23,0-2.06,0.19-2.5,0.58s-0.66,1.14-0.66,2.26v9.67c0,4.28,1.89,6.42,5.67,6.42
			c3.89,0,5.84-2.26,5.84-6.77v-8.19c0-1.55-0.23-2.6-0.68-3.14c-0.45-0.55-1.24-0.82-2.35-0.82v-0.48h7.03v0.47H282.56z"/>
		<path d="M323.02,147.82h-8.87v-0.48c1.33,0,2.2-0.23,2.61-0.68c0.41-0.45,0.61-1.28,0.61-2.48v-15.54h-1.64
			c-1.68,0-2.89,0.3-3.64,0.9c-0.75,0.6-1.29,1.73-1.61,3.39h-0.65l0.19-5.16h17.06l0.19,5.16h-0.64c-0.3-1.65-0.83-2.78-1.6-3.39
			c-0.76-0.6-1.99-0.9-3.69-0.9h-1.64v15.9c0,1.05,0.24,1.79,0.71,2.19c0.47,0.41,1.34,0.61,2.61,0.61L323.02,147.82L323.02,147.82z
			"/>
		<path d="M355.33,147.82h-7.71v-0.48c1.63,0,2.45-0.45,2.45-1.35c0-0.34-0.19-0.98-0.58-1.9l-1.29-3h-8.54l-1.45,3.74
			c-0.17,0.45-0.26,0.84-0.26,1.16c0,0.9,0.82,1.35,2.45,1.35v0.48h-6v-0.48c0.49,0,0.99-0.24,1.5-0.73
			c0.5-0.48,1.26-1.93,2.27-4.34l6.29-14.86h0.39l7.38,17.19c0.79,1.83,1.83,2.74,3.09,2.74L355.33,147.82L355.33,147.82z
			 M347.85,140.21l-3.97-9.32l-3.84,9.32L347.85,140.21L347.85,140.21z"/>
		<path d="M383.35,128.25c-1.4,0.15-2.26,0.53-2.58,1.13c-0.32,0.6-0.48,1.55-0.48,2.84v15.93h-0.32l-13.54-16.93l-0.06,12.16
			c0,1.55,0.22,2.6,0.66,3.14s1.24,0.82,2.4,0.82v0.48h-7.13v-0.48c1.18,0,2-0.26,2.45-0.79s0.68-1.58,0.68-3.18v-13.41
			c-0.9-1.14-1.95-1.71-3.13-1.71v-0.48h4.55l12.45,15.67l0.06-11.22c0-1.44-0.2-2.46-0.61-3.06c-0.41-0.6-1.25-0.9-2.52-0.9v-0.48
			h7.13v0.47H383.35z"/>
		<path d="M411.4,137.5c-1.05,0.11-1.72,0.35-2.01,0.72c-0.29,0.38-0.44,0.96-0.44,1.76v6.09c0,0.3-0.82,0.74-2.47,1.31
			s-3.17,0.85-4.56,0.85c-3.48,0-6.19-0.95-8.12-2.84s-2.9-4.52-2.9-7.9c0-2.77,0.98-5.16,2.93-7.16s4.43-3,7.42-3
			c0.99,0,1.92,0.13,2.8,0.39c0.88,0.26,1.77,0.52,2.68,0.77c0.71,0,1.17-0.39,1.39-1.16h0.64l0.26,6.38h-0.58
			c-1.35-3.68-3.61-5.51-6.77-5.51c-2.24,0-4.17,0.88-5.79,2.64s-2.43,4.18-2.43,7.25c0,2.73,0.85,4.96,2.55,6.67
			c1.7,1.72,3.76,2.58,6.19,2.58c1.05,0,2.06-0.22,3.01-0.66c0.96-0.44,1.44-0.93,1.44-1.47v-4.9c0-1.18-0.22-1.95-0.65-2.31
			c-0.43-0.35-1.2-0.53-2.32-0.53v-0.42h7.74v0.45H411.4z"/>
	</g>
</g>
</svg>
